<svg width="100" height="100" viewBox="0 0 100 100" fill="none" xmlns="http://www.w3.org/2000/svg">
<g clip-path="url(#clip0_1721_840)">
<path d="M74.0234 71.1731L63.5234 81.5001C60.9334 79.3731 58.3644 77.2741 55.8054 75.1621C50.1054 70.4541 44.3565 65.7971 38.7435 60.9891C37.3521 59.6748 36.1484 58.175 35.1664 56.5321C34.8203 55.9505 34.6231 55.2924 34.5924 54.6162C34.5617 53.94 34.6984 53.2668 34.9904 52.6561C35.0663 52.4127 35.0878 52.1555 35.0532 51.9029C35.0187 51.6502 34.9289 51.4082 34.7905 51.1941C32.6655 48.5201 30.4675 45.9021 28.2515 43.2171C30.5375 40.9701 32.7624 38.7801 35.0964 36.4841C37.2524 38.2101 39.3978 39.9268 41.5325 41.6341C42.1155 42.1423 42.7272 42.6168 43.3644 43.0551C43.5298 43.1628 43.7157 43.235 43.9103 43.2672C44.105 43.2994 44.3042 43.2908 44.4954 43.2421C45.2901 42.8531 46.1789 42.6975 47.0585 42.7935C47.938 42.8894 48.7723 43.2329 49.4644 43.7841C51.1446 44.9849 52.6872 46.3673 54.0644 47.9061C60.7394 55.5861 67.3174 63.3351 74.0234 71.1731ZM71.2985 71.0341C64.8535 63.5031 58.4585 56.0341 52.0355 48.5261L40.4654 59.9091L63.3715 78.8341L71.2985 71.0341ZM50.6605 46.8731C49.7107 46.2105 48.726 45.5996 47.7104 45.0431C47.2114 44.7764 46.6369 44.6862 46.0801 44.7871C45.5234 44.888 45.0171 45.1742 44.6434 45.5991C42.2504 47.9861 39.8334 50.3511 37.4184 52.7171C37.0256 53.0454 36.7557 53.4972 36.6529 53.9987C36.5501 54.5002 36.6204 55.0218 36.8524 55.4781C37.4392 56.5398 38.0814 57.5699 38.7764 58.5641L50.6605 46.8731ZM36.8004 50.4241C38.7104 48.5461 40.5154 46.7691 42.4214 44.8941L35.2544 39.1331C33.7934 40.5711 32.4014 41.9421 30.9454 43.3741L36.8004 50.4241ZM56.4134 41.0311C56.2734 41.0318 56.1358 40.9941 56.0156 40.9222C55.8953 40.8503 55.7971 40.7469 55.7314 40.6231C53.6014 36.5821 48.2424 34.8691 43.7864 36.8021C43.6006 36.8834 43.3902 36.8885 43.2007 36.8161C43.0112 36.7437 42.8577 36.5996 42.7734 36.4151C42.6929 36.2333 42.6878 36.0269 42.7593 35.8414C42.8307 35.6558 42.9728 35.5061 43.1544 35.4251H43.1664C48.3504 33.1751 54.5984 35.1971 57.0944 39.9331C57.1868 40.1087 57.2058 40.3138 57.1471 40.5034C57.0884 40.6929 56.9569 40.8514 56.7814 40.9441L56.7664 40.9511C56.6567 41.0054 56.5358 41.0328 56.4134 41.0311ZM52.6974 42.1531C52.6099 42.1535 52.5236 42.132 52.4466 42.0904C52.3695 42.0488 52.3042 41.9885 52.2565 41.9151C50.9935 39.9711 48.0084 39.3561 46.0124 40.0021C45.8811 40.0448 45.7383 40.0343 45.6147 39.9727C45.4911 39.9112 45.3965 39.8036 45.3514 39.6731C45.3087 39.5442 45.319 39.4036 45.3799 39.2823C45.4409 39.161 45.5476 39.0688 45.6764 39.0261H45.6854C48.0444 38.2631 51.5644 38.9401 53.1384 41.3641C53.175 41.4203 53.2002 41.483 53.2125 41.5489C53.2248 41.6148 53.2241 41.6824 53.2103 41.748C53.1964 41.8136 53.1698 41.8758 53.1319 41.931C53.094 41.9863 53.0456 42.0336 52.9894 42.0701L52.9794 42.0761C52.8947 42.1283 52.7969 42.155 52.6974 42.1531ZM31.8914 64.5921C31.7686 64.5919 31.6476 64.5624 31.5384 64.5061C29.1855 63.2236 27.405 61.0981 26.5549 58.5567C25.7047 56.0153 25.8478 53.2463 26.9554 50.8061C27.0405 50.6223 27.1941 50.479 27.3834 50.4069C27.5726 50.3348 27.7826 50.3395 27.9684 50.4201C28.0593 50.4585 28.1418 50.5143 28.2111 50.5845C28.2803 50.6547 28.3351 50.7379 28.3722 50.8293C28.4094 50.9206 28.4282 51.0184 28.4275 51.1171C28.4269 51.2157 28.4068 51.3133 28.3685 51.4041L28.3614 51.4201C27.4045 53.5073 27.2731 55.8794 27.9936 58.0595C28.7142 60.2396 30.2332 62.0662 32.2454 63.1721C32.3335 63.2163 32.412 63.2774 32.4764 63.3519C32.5409 63.4264 32.5901 63.5129 32.6211 63.6064C32.6521 63.6999 32.6644 63.7986 32.6572 63.8969C32.6501 63.9952 32.6237 64.0911 32.5795 64.1791L32.5734 64.1901C32.5066 64.3125 32.408 64.4144 32.2879 64.4852C32.1678 64.556 32.0308 64.5929 31.8914 64.5921ZM33.2764 60.6921C33.1767 60.6922 33.0789 60.6642 32.9944 60.6111C30.5304 59.0631 29.8425 55.5991 30.6185 53.2781C30.6636 53.1476 30.7581 53.04 30.8817 52.9785C31.0053 52.917 31.1481 52.9064 31.2794 52.9491C31.3439 52.9696 31.4038 53.0026 31.4555 53.0462C31.5072 53.0898 31.5499 53.1431 31.581 53.2032C31.6121 53.2633 31.6311 53.3289 31.6368 53.3963C31.6426 53.4638 31.6349 53.5316 31.6144 53.5961C30.9574 55.5601 31.5834 58.4961 33.5594 59.7381C33.6166 59.7736 33.6662 59.82 33.7054 59.8746C33.7446 59.9292 33.7725 59.9911 33.7878 60.0566C33.803 60.1221 33.8052 60.1899 33.7941 60.2563C33.7831 60.3226 33.7591 60.3861 33.7234 60.4431V60.4501C33.6752 60.5256 33.6084 60.5874 33.5294 60.6298C33.4505 60.6722 33.362 60.6936 33.2725 60.6921H33.2764Z" fill="black"/>
</g>
<defs>
<clipPath id="clip0_1721_840">
<rect width="100" height="100" fill="white"/>
</clipPath>
</defs>
</svg>
