<svg width="100" height="100" viewBox="0 0 100 100" fill="none" xmlns="http://www.w3.org/2000/svg">
<g clip-path="url(#clip0_1721_844)">
<mask id="path-1-outside-1_1721_844" maskUnits="userSpaceOnUse" x="11" y="37.834" width="70" height="44" fill="black">
<rect fill="white" x="11" y="37.834" width="70" height="44"/>
<path d="M78.0798 51.6268H77.0352V47.1137C77.0352 45.5736 75.7831 44.3215 74.243 44.3215H71.0657C70.6472 44.3215 70.2555 44.4219 69.8973 44.586V42.1051C69.8973 40.4211 68.5279 39.0517 66.8439 39.0517H63.2448C61.5607 39.0517 60.1914 40.4211 60.1914 42.1051V51.63H56.8501C56.5454 50.4716 55.5008 49.6111 54.2486 49.6111C53.579 49.6111 52.9697 49.8656 52.4976 50.274C51.9619 49.35 50.9743 48.7206 49.8292 48.7206C48.9754 48.7206 48.2054 49.0654 47.6429 49.6245C47.047 48.8712 46.1363 48.3791 45.1018 48.3791C44.0706 48.3791 43.1566 48.8713 42.5607 49.6245C42.0016 49.0654 41.2282 48.7206 40.3744 48.7206C38.7305 48.7206 37.398 50.0095 37.2976 51.63H31.6093V41.8874C31.6093 40.2034 30.24 38.834 28.556 38.834H24.9568C23.2728 38.834 21.9034 40.2034 21.9034 41.8874V44.3682C21.5486 44.2042 21.1535 44.1037 20.735 44.1037H17.5577C16.0176 44.1037 14.7655 45.3559 14.7655 46.896V51.6301H13.9117C12.8571 51.6301 12 52.4871 12 53.5418V55.3062C12 56.3609 12.8571 57.218 13.9117 57.218H14.7655V61.567C14.7655 63.1071 16.0176 64.3593 17.5577 64.3593H20.735C21.1535 64.3593 21.5452 64.2588 21.9034 64.0948V66.5756C21.9034 68.2596 23.2728 69.629 24.9568 69.629H28.556C30.24 69.629 31.6093 68.2596 31.6093 66.5756V57.2179H34.3514C34.2944 57.325 34.2275 57.4188 34.1773 57.5326C33.2264 59.7088 33.7253 62.8894 34.5958 64.925C35.4227 66.8635 36.4271 67.9784 37.3144 68.9627C39.0085 70.841 40.4682 72.4614 40.5552 79.6695C40.5552 79.6863 40.5619 79.6997 40.5653 79.7131C40.5686 79.77 40.5854 79.8202 40.5987 79.8738C40.6121 79.924 40.6222 79.9708 40.6456 80.0144C40.6691 80.0612 40.6992 80.0981 40.7327 80.1382C40.7661 80.1818 40.7929 80.2219 40.8331 80.2588C40.8699 80.2923 40.9135 80.3123 40.9536 80.3391C41.0039 80.3693 41.0507 80.396 41.1043 80.4161C41.121 80.4228 41.1311 80.4329 41.1478 80.4396C42.872 80.9317 44.6197 81.1795 46.4042 81.1795C48.6239 81.1795 50.9039 80.7978 53.2843 80.0345C53.6191 79.9273 53.8502 79.6126 53.8502 79.2611C53.8502 78.3806 53.8033 77.48 53.7598 76.6094C53.656 74.5939 53.5522 72.5115 54.0176 70.6064C54.3992 69.0496 55.032 67.9079 55.648 66.8031C56.927 64.4963 58.1389 62.3067 57.1212 57.2208H60.188V66.7996C60.188 68.4837 61.5573 69.853 63.2414 69.853H66.8405C68.5245 69.853 69.8938 68.4837 69.8938 66.7996V64.3188C70.2487 64.4828 70.6438 64.5833 71.0623 64.5833H74.2396C75.7797 64.5833 77.0318 63.3311 77.0318 61.791V57.2244H78.0764C79.1311 57.2244 79.9882 56.3673 79.9882 55.3126V53.5482C79.9882 52.4935 79.1311 51.6364 78.0764 51.6364L78.0798 51.6268ZM53.177 52.3098C53.177 51.7172 53.6591 51.2351 54.2517 51.2351C54.8443 51.2351 55.3264 51.7173 55.3264 52.3098V56.4915C55.3264 57.0841 54.8443 57.5662 54.2517 57.5662C53.6591 57.5662 53.177 57.0841 53.177 56.4915V52.3098ZM49.8324 50.3445C50.6426 50.3445 51.3021 51.0041 51.3021 51.8143V56.8698C51.3021 57.68 50.6425 58.3395 49.8324 58.3395C49.0221 58.3395 48.3626 57.6799 48.3626 56.8698V51.8143C48.3626 51.0041 49.0222 50.3445 49.8324 50.3445ZM43.4744 51.6369C43.4744 50.7362 44.2077 50.0064 45.1049 50.0064C46.0055 50.0064 46.7353 50.7396 46.7353 51.6369V57.0506C46.7353 57.9512 46.0021 58.6811 45.1049 58.6811C44.7098 58.6811 44.3449 58.5237 44.0536 58.2726C44.7332 57.7804 45.2957 57.1845 45.4799 56.3743C45.8682 54.6635 45.2957 53.803 44.7466 53.3812C44.3884 53.1033 43.9465 52.9627 43.4744 52.9024L43.4744 51.6369ZM38.9111 51.8143C38.9111 51.0041 39.5707 50.3446 40.3808 50.3446C41.1911 50.3446 41.8506 51.0041 41.8506 51.8143V52.9828C41.1542 53.1234 40.4913 53.3678 40.0025 53.6256C39.6644 53.803 39.3664 53.9638 39.0985 54.1077C39.0282 54.1445 38.9747 54.1747 38.9111 54.2082L38.9111 51.8143ZM13.9183 55.5875C13.7642 55.5875 13.6337 55.4569 13.6337 55.3029V53.5385C13.6337 53.3845 13.7642 53.2539 13.9183 53.2539H14.772V55.5875L13.9183 55.5875ZM20.7448 62.7288H17.5676C16.9248 62.7288 16.3991 62.2065 16.3991 61.5603V46.8963C16.3991 46.2535 16.9214 45.7278 17.5676 45.7278H20.7448C21.3876 45.7278 21.9133 46.2501 21.9133 46.8963V61.5603C21.9133 62.2031 21.391 62.7288 20.7448 62.7288ZM29.9954 66.5723C29.9954 67.3591 29.356 68.002 28.5658 68.002H24.9667C24.1799 68.002 23.5371 67.3592 23.5371 66.5723V41.8838C23.5371 41.097 24.1799 40.4541 24.9667 40.4541H28.5658C29.3526 40.4541 29.9954 41.097 29.9954 41.8838V66.5723ZM31.6192 53.254H37.2874V55.0117C37.043 55.1155 36.7886 55.2193 36.4872 55.3264C36.2897 55.3967 36.1123 55.4938 35.9348 55.5909H31.6192L31.6192 53.254ZM54.2319 66.0067C53.5958 67.1516 52.876 68.4474 52.4441 70.2117C51.9218 72.3478 52.0323 74.5541 52.1394 76.6835C52.1729 77.333 52.2064 78.0026 52.2198 78.6555C48.6709 79.7034 45.3697 79.8106 42.1686 79.0104C41.9912 71.7251 40.3105 69.8403 38.526 67.8647C37.6455 66.8905 36.8151 65.9698 36.0954 64.279C35.3554 62.5447 34.9537 59.8161 35.6735 58.1755C35.9681 57.5059 36.4101 57.074 37.0294 56.8497C37.5718 56.6555 37.997 56.4781 38.4088 56.2839C38.4122 56.2839 38.4155 56.2805 38.4155 56.2805C38.8709 56.0663 39.3128 55.8319 39.8652 55.5339C40.1297 55.3933 40.421 55.2359 40.7558 55.0585C41.7401 54.5396 43.23 54.2617 43.7523 54.6634C44.0838 54.9179 43.98 55.6143 43.8929 56.0093C43.7389 56.6923 42.6977 57.2514 41.6899 57.7905C40.6955 58.3228 39.6677 58.8752 39.1722 59.7289C38.5863 60.7401 39.4802 62.1998 40.6219 63.0602C41.1275 63.4419 41.5627 63.6796 41.9109 63.8704C42.8048 64.3592 43.2099 64.5836 43.8796 67.0008C44.0001 67.4327 44.4454 67.6871 44.8806 67.5666C45.3125 67.4461 45.567 67.0008 45.4465 66.5655C44.6329 63.6259 43.9063 63.107 42.6911 62.4441C42.3563 62.26 42.0081 62.0725 41.5963 61.7611C40.9367 61.2656 40.6421 60.6897 40.612 60.4888C40.91 60.0536 41.6934 59.6317 42.4567 59.2233C42.507 59.1965 42.5605 59.1663 42.6141 59.1396C43.2268 59.8661 44.1307 60.3047 45.1016 60.3047C46.1362 60.3047 47.0468 59.8125 47.6427 59.0592C48.2019 59.6184 48.9753 59.9632 49.829 59.9632C50.9406 59.9632 51.9082 59.3706 52.4539 58.4901C52.9326 58.9186 53.5554 59.1864 54.2485 59.1864C54.7975 59.1864 55.3064 59.019 55.7317 58.7378C56.2272 62.3804 55.2931 64.0846 54.2284 66.003L54.2319 66.0067ZM56.9539 55.5878V53.2542H60.1947V55.5878H56.9539ZM68.2769 66.79C68.2769 67.5768 67.6341 68.2197 66.8473 68.2197H63.2482C62.4614 68.2197 61.8185 67.5769 61.8185 66.79V42.1015C61.8185 41.3147 62.458 40.6718 63.2482 40.6718H66.8473C67.6341 40.6718 68.2769 41.3147 68.2769 42.1015V66.79ZM75.4149 61.778C75.4149 62.4208 74.8926 62.9465 74.2464 62.9465H71.0692C70.4263 62.9465 69.9007 62.4242 69.9007 61.778V47.114C69.9007 46.4712 70.423 45.9455 71.0692 45.9455H74.2464C74.8892 45.9455 75.4149 46.4678 75.4149 47.114V61.778ZM78.3678 55.2996C78.3678 55.4536 78.2373 55.5842 78.0832 55.5842H77.0386V53.2506H78.0832C78.2373 53.2506 78.3678 53.3811 78.3678 53.5351V55.2996Z"/>
</mask>
<path d="M78.0798 51.6268H77.0352V47.1137C77.0352 45.5736 75.7831 44.3215 74.243 44.3215H71.0657C70.6472 44.3215 70.2555 44.4219 69.8973 44.586V42.1051C69.8973 40.4211 68.5279 39.0517 66.8439 39.0517H63.2448C61.5607 39.0517 60.1914 40.4211 60.1914 42.1051V51.63H56.8501C56.5454 50.4716 55.5008 49.6111 54.2486 49.6111C53.579 49.6111 52.9697 49.8656 52.4976 50.274C51.9619 49.35 50.9743 48.7206 49.8292 48.7206C48.9754 48.7206 48.2054 49.0654 47.6429 49.6245C47.047 48.8712 46.1363 48.3791 45.1018 48.3791C44.0706 48.3791 43.1566 48.8713 42.5607 49.6245C42.0016 49.0654 41.2282 48.7206 40.3744 48.7206C38.7305 48.7206 37.398 50.0095 37.2976 51.63H31.6093V41.8874C31.6093 40.2034 30.24 38.834 28.556 38.834H24.9568C23.2728 38.834 21.9034 40.2034 21.9034 41.8874V44.3682C21.5486 44.2042 21.1535 44.1037 20.735 44.1037H17.5577C16.0176 44.1037 14.7655 45.3559 14.7655 46.896V51.6301H13.9117C12.8571 51.6301 12 52.4871 12 53.5418V55.3062C12 56.3609 12.8571 57.218 13.9117 57.218H14.7655V61.567C14.7655 63.1071 16.0176 64.3593 17.5577 64.3593H20.735C21.1535 64.3593 21.5452 64.2588 21.9034 64.0948V66.5756C21.9034 68.2596 23.2728 69.629 24.9568 69.629H28.556C30.24 69.629 31.6093 68.2596 31.6093 66.5756V57.2179H34.3514C34.2944 57.325 34.2275 57.4188 34.1773 57.5326C33.2264 59.7088 33.7253 62.8894 34.5958 64.925C35.4227 66.8635 36.4271 67.9784 37.3144 68.9627C39.0085 70.841 40.4682 72.4614 40.5552 79.6695C40.5552 79.6863 40.5619 79.6997 40.5653 79.7131C40.5686 79.77 40.5854 79.8202 40.5987 79.8738C40.6121 79.924 40.6222 79.9708 40.6456 80.0144C40.6691 80.0612 40.6992 80.0981 40.7327 80.1382C40.7661 80.1818 40.7929 80.2219 40.8331 80.2588C40.8699 80.2923 40.9135 80.3123 40.9536 80.3391C41.0039 80.3693 41.0507 80.396 41.1043 80.4161C41.121 80.4228 41.1311 80.4329 41.1478 80.4396C42.872 80.9317 44.6197 81.1795 46.4042 81.1795C48.6239 81.1795 50.9039 80.7978 53.2843 80.0345C53.6191 79.9273 53.8502 79.6126 53.8502 79.2611C53.8502 78.3806 53.8033 77.48 53.7598 76.6094C53.656 74.5939 53.5522 72.5115 54.0176 70.6064C54.3992 69.0496 55.032 67.9079 55.648 66.8031C56.927 64.4963 58.1389 62.3067 57.1212 57.2208H60.188V66.7996C60.188 68.4837 61.5573 69.853 63.2414 69.853H66.8405C68.5245 69.853 69.8938 68.4837 69.8938 66.7996V64.3188C70.2487 64.4828 70.6438 64.5833 71.0623 64.5833H74.2396C75.7797 64.5833 77.0318 63.3311 77.0318 61.791V57.2244H78.0764C79.1311 57.2244 79.9882 56.3673 79.9882 55.3126V53.5482C79.9882 52.4935 79.1311 51.6364 78.0764 51.6364L78.0798 51.6268ZM53.177 52.3098C53.177 51.7172 53.6591 51.2351 54.2517 51.2351C54.8443 51.2351 55.3264 51.7173 55.3264 52.3098V56.4915C55.3264 57.0841 54.8443 57.5662 54.2517 57.5662C53.6591 57.5662 53.177 57.0841 53.177 56.4915V52.3098ZM49.8324 50.3445C50.6426 50.3445 51.3021 51.0041 51.3021 51.8143V56.8698C51.3021 57.68 50.6425 58.3395 49.8324 58.3395C49.0221 58.3395 48.3626 57.6799 48.3626 56.8698V51.8143C48.3626 51.0041 49.0222 50.3445 49.8324 50.3445ZM43.4744 51.6369C43.4744 50.7362 44.2077 50.0064 45.1049 50.0064C46.0055 50.0064 46.7353 50.7396 46.7353 51.6369V57.0506C46.7353 57.9512 46.0021 58.6811 45.1049 58.6811C44.7098 58.6811 44.3449 58.5237 44.0536 58.2726C44.7332 57.7804 45.2957 57.1845 45.4799 56.3743C45.8682 54.6635 45.2957 53.803 44.7466 53.3812C44.3884 53.1033 43.9465 52.9627 43.4744 52.9024L43.4744 51.6369ZM38.9111 51.8143C38.9111 51.0041 39.5707 50.3446 40.3808 50.3446C41.1911 50.3446 41.8506 51.0041 41.8506 51.8143V52.9828C41.1542 53.1234 40.4913 53.3678 40.0025 53.6256C39.6644 53.803 39.3664 53.9638 39.0985 54.1077C39.0282 54.1445 38.9747 54.1747 38.9111 54.2082L38.9111 51.8143ZM13.9183 55.5875C13.7642 55.5875 13.6337 55.4569 13.6337 55.3029V53.5385C13.6337 53.3845 13.7642 53.2539 13.9183 53.2539H14.772V55.5875L13.9183 55.5875ZM20.7448 62.7288H17.5676C16.9248 62.7288 16.3991 62.2065 16.3991 61.5603V46.8963C16.3991 46.2535 16.9214 45.7278 17.5676 45.7278H20.7448C21.3876 45.7278 21.9133 46.2501 21.9133 46.8963V61.5603C21.9133 62.2031 21.391 62.7288 20.7448 62.7288ZM29.9954 66.5723C29.9954 67.3591 29.356 68.002 28.5658 68.002H24.9667C24.1799 68.002 23.5371 67.3592 23.5371 66.5723V41.8838C23.5371 41.097 24.1799 40.4541 24.9667 40.4541H28.5658C29.3526 40.4541 29.9954 41.097 29.9954 41.8838V66.5723ZM31.6192 53.254H37.2874V55.0117C37.043 55.1155 36.7886 55.2193 36.4872 55.3264C36.2897 55.3967 36.1123 55.4938 35.9348 55.5909H31.6192L31.6192 53.254ZM54.2319 66.0067C53.5958 67.1516 52.876 68.4474 52.4441 70.2117C51.9218 72.3478 52.0323 74.5541 52.1394 76.6835C52.1729 77.333 52.2064 78.0026 52.2198 78.6555C48.6709 79.7034 45.3697 79.8106 42.1686 79.0104C41.9912 71.7251 40.3105 69.8403 38.526 67.8647C37.6455 66.8905 36.8151 65.9698 36.0954 64.279C35.3554 62.5447 34.9537 59.8161 35.6735 58.1755C35.9681 57.5059 36.4101 57.074 37.0294 56.8497C37.5718 56.6555 37.997 56.4781 38.4088 56.2839C38.4122 56.2839 38.4155 56.2805 38.4155 56.2805C38.8709 56.0663 39.3128 55.8319 39.8652 55.5339C40.1297 55.3933 40.421 55.2359 40.7558 55.0585C41.7401 54.5396 43.23 54.2617 43.7523 54.6634C44.0838 54.9179 43.98 55.6143 43.8929 56.0093C43.7389 56.6923 42.6977 57.2514 41.6899 57.7905C40.6955 58.3228 39.6677 58.8752 39.1722 59.7289C38.5863 60.7401 39.4802 62.1998 40.6219 63.0602C41.1275 63.4419 41.5627 63.6796 41.9109 63.8704C42.8048 64.3592 43.2099 64.5836 43.8796 67.0008C44.0001 67.4327 44.4454 67.6871 44.8806 67.5666C45.3125 67.4461 45.567 67.0008 45.4465 66.5655C44.6329 63.6259 43.9063 63.107 42.6911 62.4441C42.3563 62.26 42.0081 62.0725 41.5963 61.7611C40.9367 61.2656 40.6421 60.6897 40.612 60.4888C40.91 60.0536 41.6934 59.6317 42.4567 59.2233C42.507 59.1965 42.5605 59.1663 42.6141 59.1396C43.2268 59.8661 44.1307 60.3047 45.1016 60.3047C46.1362 60.3047 47.0468 59.8125 47.6427 59.0592C48.2019 59.6184 48.9753 59.9632 49.829 59.9632C50.9406 59.9632 51.9082 59.3706 52.4539 58.4901C52.9326 58.9186 53.5554 59.1864 54.2485 59.1864C54.7975 59.1864 55.3064 59.019 55.7317 58.7378C56.2272 62.3804 55.2931 64.0846 54.2284 66.003L54.2319 66.0067ZM56.9539 55.5878V53.2542H60.1947V55.5878H56.9539ZM68.2769 66.79C68.2769 67.5768 67.6341 68.2197 66.8473 68.2197H63.2482C62.4614 68.2197 61.8185 67.5769 61.8185 66.79V42.1015C61.8185 41.3147 62.458 40.6718 63.2482 40.6718H66.8473C67.6341 40.6718 68.2769 41.3147 68.2769 42.1015V66.79ZM75.4149 61.778C75.4149 62.4208 74.8926 62.9465 74.2464 62.9465H71.0692C70.4263 62.9465 69.9007 62.4242 69.9007 61.778V47.114C69.9007 46.4712 70.423 45.9455 71.0692 45.9455H74.2464C74.8892 45.9455 75.4149 46.4678 75.4149 47.114V61.778ZM78.3678 55.2996C78.3678 55.4536 78.2373 55.5842 78.0832 55.5842H77.0386V53.2506H78.0832C78.2373 53.2506 78.3678 53.3811 78.3678 53.5351V55.2996Z" fill="black"/>
<path d="M78.0798 51.6268H77.0352V47.1137C77.0352 45.5736 75.7831 44.3215 74.243 44.3215H71.0657C70.6472 44.3215 70.2555 44.4219 69.8973 44.586V42.1051C69.8973 40.4211 68.5279 39.0517 66.8439 39.0517H63.2448C61.5607 39.0517 60.1914 40.4211 60.1914 42.1051V51.63H56.8501C56.5454 50.4716 55.5008 49.6111 54.2486 49.6111C53.579 49.6111 52.9697 49.8656 52.4976 50.274C51.9619 49.35 50.9743 48.7206 49.8292 48.7206C48.9754 48.7206 48.2054 49.0654 47.6429 49.6245C47.047 48.8712 46.1363 48.3791 45.1018 48.3791C44.0706 48.3791 43.1566 48.8713 42.5607 49.6245C42.0016 49.0654 41.2282 48.7206 40.3744 48.7206C38.7305 48.7206 37.398 50.0095 37.2976 51.63H31.6093V41.8874C31.6093 40.2034 30.24 38.834 28.556 38.834H24.9568C23.2728 38.834 21.9034 40.2034 21.9034 41.8874V44.3682C21.5486 44.2042 21.1535 44.1037 20.735 44.1037H17.5577C16.0176 44.1037 14.7655 45.3559 14.7655 46.896V51.6301H13.9117C12.8571 51.6301 12 52.4871 12 53.5418V55.3062C12 56.3609 12.8571 57.218 13.9117 57.218H14.7655V61.567C14.7655 63.1071 16.0176 64.3593 17.5577 64.3593H20.735C21.1535 64.3593 21.5452 64.2588 21.9034 64.0948V66.5756C21.9034 68.2596 23.2728 69.629 24.9568 69.629H28.556C30.24 69.629 31.6093 68.2596 31.6093 66.5756V57.2179H34.3514C34.2944 57.325 34.2275 57.4188 34.1773 57.5326C33.2264 59.7088 33.7253 62.8894 34.5958 64.925C35.4227 66.8635 36.4271 67.9784 37.3144 68.9627C39.0085 70.841 40.4682 72.4614 40.5552 79.6695C40.5552 79.6863 40.5619 79.6997 40.5653 79.7131C40.5686 79.77 40.5854 79.8202 40.5987 79.8738C40.6121 79.924 40.6222 79.9708 40.6456 80.0144C40.6691 80.0612 40.6992 80.0981 40.7327 80.1382C40.7661 80.1818 40.7929 80.2219 40.8331 80.2588C40.8699 80.2923 40.9135 80.3123 40.9536 80.3391C41.0039 80.3693 41.0507 80.396 41.1043 80.4161C41.121 80.4228 41.1311 80.4329 41.1478 80.4396C42.872 80.9317 44.6197 81.1795 46.4042 81.1795C48.6239 81.1795 50.9039 80.7978 53.2843 80.0345C53.6191 79.9273 53.8502 79.6126 53.8502 79.2611C53.8502 78.3806 53.8033 77.48 53.7598 76.6094C53.656 74.5939 53.5522 72.5115 54.0176 70.6064C54.3992 69.0496 55.032 67.9079 55.648 66.8031C56.927 64.4963 58.1389 62.3067 57.1212 57.2208H60.188V66.7996C60.188 68.4837 61.5573 69.853 63.2414 69.853H66.8405C68.5245 69.853 69.8938 68.4837 69.8938 66.7996V64.3188C70.2487 64.4828 70.6438 64.5833 71.0623 64.5833H74.2396C75.7797 64.5833 77.0318 63.3311 77.0318 61.791V57.2244H78.0764C79.1311 57.2244 79.9882 56.3673 79.9882 55.3126V53.5482C79.9882 52.4935 79.1311 51.6364 78.0764 51.6364L78.0798 51.6268ZM53.177 52.3098C53.177 51.7172 53.6591 51.2351 54.2517 51.2351C54.8443 51.2351 55.3264 51.7173 55.3264 52.3098V56.4915C55.3264 57.0841 54.8443 57.5662 54.2517 57.5662C53.6591 57.5662 53.177 57.0841 53.177 56.4915V52.3098ZM49.8324 50.3445C50.6426 50.3445 51.3021 51.0041 51.3021 51.8143V56.8698C51.3021 57.68 50.6425 58.3395 49.8324 58.3395C49.0221 58.3395 48.3626 57.6799 48.3626 56.8698V51.8143C48.3626 51.0041 49.0222 50.3445 49.8324 50.3445ZM43.4744 51.6369C43.4744 50.7362 44.2077 50.0064 45.1049 50.0064C46.0055 50.0064 46.7353 50.7396 46.7353 51.6369V57.0506C46.7353 57.9512 46.0021 58.6811 45.1049 58.6811C44.7098 58.6811 44.3449 58.5237 44.0536 58.2726C44.7332 57.7804 45.2957 57.1845 45.4799 56.3743C45.8682 54.6635 45.2957 53.803 44.7466 53.3812C44.3884 53.1033 43.9465 52.9627 43.4744 52.9024L43.4744 51.6369ZM38.9111 51.8143C38.9111 51.0041 39.5707 50.3446 40.3808 50.3446C41.1911 50.3446 41.8506 51.0041 41.8506 51.8143V52.9828C41.1542 53.1234 40.4913 53.3678 40.0025 53.6256C39.6644 53.803 39.3664 53.9638 39.0985 54.1077C39.0282 54.1445 38.9747 54.1747 38.9111 54.2082L38.9111 51.8143ZM13.9183 55.5875C13.7642 55.5875 13.6337 55.4569 13.6337 55.3029V53.5385C13.6337 53.3845 13.7642 53.2539 13.9183 53.2539H14.772V55.5875L13.9183 55.5875ZM20.7448 62.7288H17.5676C16.9248 62.7288 16.3991 62.2065 16.3991 61.5603V46.8963C16.3991 46.2535 16.9214 45.7278 17.5676 45.7278H20.7448C21.3876 45.7278 21.9133 46.2501 21.9133 46.8963V61.5603C21.9133 62.2031 21.391 62.7288 20.7448 62.7288ZM29.9954 66.5723C29.9954 67.3591 29.356 68.002 28.5658 68.002H24.9667C24.1799 68.002 23.5371 67.3592 23.5371 66.5723V41.8838C23.5371 41.097 24.1799 40.4541 24.9667 40.4541H28.5658C29.3526 40.4541 29.9954 41.097 29.9954 41.8838V66.5723ZM31.6192 53.254H37.2874V55.0117C37.043 55.1155 36.7886 55.2193 36.4872 55.3264C36.2897 55.3967 36.1123 55.4938 35.9348 55.5909H31.6192L31.6192 53.254ZM54.2319 66.0067C53.5958 67.1516 52.876 68.4474 52.4441 70.2117C51.9218 72.3478 52.0323 74.5541 52.1394 76.6835C52.1729 77.333 52.2064 78.0026 52.2198 78.6555C48.6709 79.7034 45.3697 79.8106 42.1686 79.0104C41.9912 71.7251 40.3105 69.8403 38.526 67.8647C37.6455 66.8905 36.8151 65.9698 36.0954 64.279C35.3554 62.5447 34.9537 59.8161 35.6735 58.1755C35.9681 57.5059 36.4101 57.074 37.0294 56.8497C37.5718 56.6555 37.997 56.4781 38.4088 56.2839C38.4122 56.2839 38.4155 56.2805 38.4155 56.2805C38.8709 56.0663 39.3128 55.8319 39.8652 55.5339C40.1297 55.3933 40.421 55.2359 40.7558 55.0585C41.7401 54.5396 43.23 54.2617 43.7523 54.6634C44.0838 54.9179 43.98 55.6143 43.8929 56.0093C43.7389 56.6923 42.6977 57.2514 41.6899 57.7905C40.6955 58.3228 39.6677 58.8752 39.1722 59.7289C38.5863 60.7401 39.4802 62.1998 40.6219 63.0602C41.1275 63.4419 41.5627 63.6796 41.9109 63.8704C42.8048 64.3592 43.2099 64.5836 43.8796 67.0008C44.0001 67.4327 44.4454 67.6871 44.8806 67.5666C45.3125 67.4461 45.567 67.0008 45.4465 66.5655C44.6329 63.6259 43.9063 63.107 42.6911 62.4441C42.3563 62.26 42.0081 62.0725 41.5963 61.7611C40.9367 61.2656 40.6421 60.6897 40.612 60.4888C40.91 60.0536 41.6934 59.6317 42.4567 59.2233C42.507 59.1965 42.5605 59.1663 42.6141 59.1396C43.2268 59.8661 44.1307 60.3047 45.1016 60.3047C46.1362 60.3047 47.0468 59.8125 47.6427 59.0592C48.2019 59.6184 48.9753 59.9632 49.829 59.9632C50.9406 59.9632 51.9082 59.3706 52.4539 58.4901C52.9326 58.9186 53.5554 59.1864 54.2485 59.1864C54.7975 59.1864 55.3064 59.019 55.7317 58.7378C56.2272 62.3804 55.2931 64.0846 54.2284 66.003L54.2319 66.0067ZM56.9539 55.5878V53.2542H60.1947V55.5878H56.9539ZM68.2769 66.79C68.2769 67.5768 67.6341 68.2197 66.8473 68.2197H63.2482C62.4614 68.2197 61.8185 67.5769 61.8185 66.79V42.1015C61.8185 41.3147 62.458 40.6718 63.2482 40.6718H66.8473C67.6341 40.6718 68.2769 41.3147 68.2769 42.1015V66.79ZM75.4149 61.778C75.4149 62.4208 74.8926 62.9465 74.2464 62.9465H71.0692C70.4263 62.9465 69.9007 62.4242 69.9007 61.778V47.114C69.9007 46.4712 70.423 45.9455 71.0692 45.9455H74.2464C74.8892 45.9455 75.4149 46.4678 75.4149 47.114V61.778ZM78.3678 55.2996C78.3678 55.4536 78.2373 55.5842 78.0832 55.5842H77.0386V53.2506H78.0832C78.2373 53.2506 78.3678 53.3811 78.3678 53.5351V55.2996Z" stroke="#F8F0DB" stroke-width="1.02851" mask="url(#path-1-outside-1_1721_844)"/>
</g>
<defs>
<clipPath id="clip0_1721_844">
<rect width="100" height="100" fill="white"/>
</clipPath>
</defs>
</svg>
