<svg width="100" height="100" viewBox="0 0 100 100" fill="none" xmlns="http://www.w3.org/2000/svg">
<g clip-path="url(#clip0_1721_849)">
<path d="M72.4216 66.6969C72.4215 67.1603 72.2418 67.6056 71.9204 67.9393C71.5989 68.273 71.1607 68.4693 70.6976 68.4869C70.4583 68.4941 70.22 68.4527 69.9972 68.365C69.7744 68.2774 69.5717 68.1454 69.4014 67.9771C69.2312 67.8088 69.0969 67.6076 69.0067 67.3859C68.9164 67.1641 68.8722 66.9263 68.8767 66.6869C68.8719 66.4573 68.9124 66.229 68.996 66.015C69.0796 65.8011 69.2047 65.6058 69.3639 65.4402C69.5231 65.2747 69.7134 65.1422 69.9239 65.0504C70.1344 64.9585 70.361 64.9091 70.5906 64.9049C70.8302 64.8961 71.069 64.9361 71.2925 65.0225C71.5161 65.1089 71.7198 65.2399 71.8911 65.4076C72.0624 65.5752 72.1978 65.776 72.289 65.9977C72.3802 66.2193 72.4253 66.4572 72.4216 66.6969ZM65.3496 52.1189L64.8206 53.2429L65.2047 53.3869C65.3115 53.4267 65.4086 53.4888 65.4895 53.5692C65.5704 53.6496 65.6332 53.7463 65.6736 53.8529C66.3857 55.7199 66.2997 56.4259 65.0537 57.5689C65.0447 59.4689 64.5007 60.2029 62.7747 60.6189L61.9846 62.2049C61.8926 62.3918 61.7314 62.5355 61.5351 62.6053C61.3388 62.6752 61.1231 62.6657 60.9337 62.5789L59.6586 62.0019C59.4747 61.9195 59.3287 61.7708 59.2497 61.5854C59.1707 61.4 59.1646 61.1916 59.2326 61.0019C59.3206 60.7509 59.5136 60.2379 59.7106 59.7159C59.8876 59.2449 60.0696 58.7609 60.1746 58.4709C60.1636 58.2609 59.9877 57.2889 57.7647 56.4709C55.9804 55.9502 54.3336 55.0407 52.9426 53.8079C52.4136 53.2939 51.8327 52.8259 51.2177 52.3309L51.0296 52.1799L50.2177 53.3419L47.2846 57.4279L47.3007 57.4399C47.7577 57.7769 48.1927 58.0979 48.6317 58.4129L49.4606 59.0059C50.9296 60.0589 52.4477 61.1469 53.9517 62.1989C54.66 62.6793 55.1963 63.3734 55.4826 64.1799C56.5186 67.0579 57.5826 69.9799 58.6156 72.8049L59.6696 75.6969C59.6876 75.7469 59.7076 75.7969 59.7266 75.8469C59.7888 75.9975 59.8416 76.1518 59.8846 76.3089C60.0817 76.9052 60.0402 77.5545 59.7689 78.1209C59.4977 78.6873 59.0177 79.1266 58.4296 79.3469C58.1464 79.4491 57.8477 79.5018 57.5466 79.5029C57.0791 79.5004 56.622 79.3653 56.2283 79.1133C55.8346 78.8612 55.5205 78.5025 55.3226 78.0789C54.6986 76.8189 54.0896 75.5299 53.5006 74.2789C53.3006 73.8516 53.0987 73.4246 52.8947 72.9979C52.6453 72.4739 52.398 71.9493 52.1527 71.4239C51.5677 70.1749 50.9626 68.8859 50.3326 67.6399C50.1565 67.3071 49.8979 67.0251 49.5816 66.8209C48.0236 65.8499 46.4146 64.8969 44.8576 63.9749L43.8737 63.3919C43.7177 64.0919 43.5667 64.7609 43.4257 65.4369C43.1667 66.6759 42.9257 67.8869 42.7257 68.9089C42.5875 69.7967 42.1036 70.5938 41.3796 71.1259C39.7723 72.2932 38.1666 73.4632 36.5626 74.6359C35.0786 75.7186 33.594 76.8006 32.1086 77.8819C31.7799 78.1448 31.3982 78.3335 30.9896 78.4349C30.5217 78.5534 30.0289 78.5273 29.5762 78.36C29.1234 78.1928 28.732 77.8922 28.4536 77.4979C28.1495 77.0791 27.9875 76.574 27.9913 76.0565C27.9951 75.5389 28.1644 75.0362 28.4746 74.6219C28.6944 74.3429 28.9425 74.0872 29.2147 73.8589L30.7147 72.5069C32.4927 70.9069 34.3296 69.2549 36.1566 67.6489C36.3552 67.4918 36.517 67.2931 36.6307 67.0668C36.7443 66.8405 36.8072 66.592 36.8146 66.3389C37.0406 63.4849 37.3516 60.6389 37.6556 57.9799C37.7389 57.2844 37.9397 56.6081 38.2496 55.9799C39.1196 54.2179 40.0187 52.4369 40.8897 50.7159C41.537 49.4326 42.183 48.1486 42.8276 46.8639C43.2279 45.9537 43.8854 45.1804 44.7194 44.6391C45.5533 44.0977 46.5274 43.8119 47.5216 43.8169C46.9336 43.0345 46.621 42.0795 46.6326 41.1009C46.6375 39.888 47.1186 38.7255 47.9722 37.8638C48.8259 37.0021 49.9838 36.5101 51.1967 36.4939C52.4119 36.4996 53.5762 36.983 54.4381 37.8397C55.3001 38.6964 55.7905 39.8577 55.8037 41.0729C55.8092 42.2689 55.3452 43.4194 54.5113 44.2768C53.6774 45.1342 52.5403 45.6301 51.3446 45.6579C52.9446 46.9779 54.6146 48.3779 56.2656 49.8479C57.1326 50.6851 58.2 51.2856 59.3656 51.5919C60.3596 51.8309 61.3136 52.1159 62.3236 52.4159L63.3236 52.7099C63.7031 51.9354 63.8968 51.0832 63.8893 50.2208C63.8818 49.3584 63.6734 48.5097 63.2806 47.7419C62.9691 46.9669 62.8161 46.1373 62.8307 45.3022C62.8452 44.467 63.0271 43.6433 63.3654 42.8796C63.7037 42.1159 64.1916 41.4278 64.8004 40.8559C65.4091 40.284 66.1263 39.8399 66.9096 39.5499C67.9134 39.1699 69.0255 39.1942 70.0117 39.6178C70.9979 40.0414 71.7812 40.8312 72.1967 41.8209C72.5314 42.6346 72.6925 43.5092 72.6696 44.3888C72.6468 45.2684 72.4405 46.1334 72.0639 46.9286C71.6873 47.7238 71.1489 48.4316 70.4829 49.0067C69.817 49.5817 69.0383 50.0113 68.1967 50.2679C67.0797 50.6149 65.9216 50.9489 65.3536 52.1179L65.3496 52.1189ZM48.2496 41.1189C48.2446 41.4988 48.3156 41.8759 48.4584 42.228C48.6013 42.5801 48.8132 42.9 49.0816 43.1689C49.3637 43.4529 49.6996 43.6779 50.0696 43.8305C50.4396 43.9832 50.8364 44.0604 51.2366 44.0579C51.6299 44.0588 52.0195 43.9813 52.3825 43.8298C52.7454 43.6784 53.0746 43.4561 53.3507 43.1759C53.6249 42.9022 53.8418 42.5766 53.9886 42.2181C54.1354 41.8595 54.2092 41.4753 54.2056 41.0879C54.1975 40.2961 53.8784 39.5394 53.3171 38.9809C52.7558 38.4224 51.9974 38.1071 51.2056 38.1029C50.4166 38.1186 49.6653 38.4433 49.1131 39.007C48.5609 39.5708 48.2519 40.3288 48.2526 41.1179L48.2496 41.1189ZM64.3016 54.7649L63.1776 54.3429C62.7366 54.2159 62.3026 54.0869 61.8776 53.9589C60.8886 53.6589 59.9537 53.3859 59.0017 53.1589C57.5803 52.7899 56.276 52.0655 55.2116 51.0539C53.2786 49.3309 51.3047 47.6939 49.4597 46.1799C49.0392 45.8147 48.5274 45.5704 47.979 45.4732C47.4306 45.376 46.8661 45.4295 46.3456 45.6279C45.8853 45.7947 45.4643 46.0547 45.109 46.3916C44.7537 46.7285 44.4717 47.1351 44.2806 47.5859C43.6373 48.8746 42.9897 50.1609 42.3377 51.4449C41.4697 53.1639 40.5717 54.9449 39.7047 56.6959C39.477 57.16 39.3286 57.6589 39.2656 58.1719C38.9656 60.8109 38.6536 63.6439 38.4306 66.4719C38.4076 66.9319 38.2891 67.3821 38.0825 67.7938C37.8759 68.2055 37.5858 68.5696 37.2307 68.8629C35.4107 70.4629 33.5766 72.1149 31.8016 73.7109L30.2926 75.0669C30.104 75.2232 29.9309 75.3974 29.7756 75.5869C29.67 75.727 29.612 75.8972 29.61 76.0726C29.608 76.248 29.6622 76.4195 29.7647 76.5619C29.8631 76.7065 30.0067 76.8143 30.173 76.8686C30.3393 76.9229 30.5189 76.9206 30.6837 76.8619C30.861 76.7959 31.0264 76.7017 31.1736 76.5829C32.6583 75.5049 34.142 74.4242 35.6246 73.3409C37.2313 72.1682 38.8383 70.9976 40.4456 69.8289C40.6405 69.6831 40.8042 69.4996 40.9268 69.2893C41.0495 69.0791 41.1286 68.8463 41.1596 68.6049C41.3596 67.5779 41.5976 66.3599 41.8596 65.1099C42.0036 64.4179 42.1596 63.7279 42.3186 63.0099C42.3899 62.6899 42.4626 62.3642 42.5366 62.0329C42.5618 61.9159 42.613 61.806 42.6863 61.7114C42.7596 61.6168 42.8532 61.5398 42.9601 61.4862C43.0671 61.4325 43.1848 61.4036 43.3045 61.4015C43.4242 61.3993 43.5428 61.4241 43.6516 61.4739C43.7376 61.5129 43.8146 61.5439 43.8826 61.5739C44.036 61.6351 44.185 61.7066 44.3286 61.7879C44.78 62.0546 45.2317 62.3212 45.6837 62.5879C47.2477 63.5149 48.8666 64.4729 50.4376 65.4529C51.0027 65.8138 51.4634 66.3165 51.7736 66.9109C52.4136 68.1779 53.0246 69.4789 53.6146 70.7379C53.86 71.2606 54.106 71.7826 54.3527 72.3039C54.5527 72.7309 54.7586 73.1599 54.9616 73.5879C55.5476 74.8289 56.1536 76.1109 56.7706 77.3569C56.8123 77.4627 56.8748 77.559 56.9543 77.6402C57.0339 77.7213 57.129 77.7857 57.2339 77.8294C57.3388 77.8732 57.4515 77.8954 57.5651 77.8948C57.6788 77.8942 57.7912 77.8708 57.8956 77.8259C58.1014 77.7338 58.2627 77.5647 58.345 77.3549C58.4273 77.145 58.424 76.9113 58.3356 76.7039C58.3071 76.6096 58.2737 76.5168 58.2357 76.4259C58.2107 76.3639 58.1866 76.3009 58.1636 76.2379L57.1096 73.3469C56.0776 70.5199 55.0096 67.5969 53.9736 64.7169C53.8022 64.2216 53.4726 63.7964 53.0356 63.5069C51.5236 62.4489 50.0016 61.3579 48.5296 60.3069L47.7006 59.7139C47.2556 59.3949 46.8146 59.0689 46.3516 58.7269L45.7006 58.2479C45.5294 58.1235 45.4144 57.9364 45.3808 57.7274C45.3473 57.5184 45.3979 57.3046 45.5216 57.1329L46.8217 55.3149L48.9127 52.4059L50.2127 50.5439C50.2761 50.4522 50.358 50.3748 50.4532 50.3166C50.5483 50.2584 50.6546 50.2208 50.7651 50.2061C50.8757 50.1914 50.9881 50.2 51.0951 50.2313C51.2021 50.2626 51.3015 50.316 51.3867 50.3879C51.6677 50.6229 51.9496 50.8499 52.2286 51.0749C52.8446 51.5749 53.4817 52.0849 54.0637 52.6509C55.2958 53.7218 56.7479 54.5093 58.3176 54.9579C62.2086 56.3829 61.7767 58.6979 61.7567 58.7969C61.749 58.8308 61.7393 58.8642 61.7277 58.8969C61.6627 59.0809 61.5516 59.3789 61.4276 59.7119L61.5076 59.5489C61.5625 59.4388 61.6418 59.3426 61.7396 59.2679C61.8373 59.1932 61.951 59.1419 62.0717 59.1179C63.4877 58.8389 63.4847 58.7479 63.4417 57.2249C63.4387 57.1054 63.4622 56.9867 63.5106 56.8774C63.559 56.7682 63.6311 56.671 63.7216 56.5929C64.6016 55.8499 64.6817 55.7799 64.3037 54.7639L64.3016 54.7649ZM68.7686 48.4159C69.6686 47.8484 70.3661 47.0109 70.7613 46.023C71.1564 45.0351 71.229 43.9475 70.9686 42.9159C70.8752 42.4942 70.6836 42.1005 70.4093 41.7668C70.1351 41.4332 69.7859 41.1689 69.3903 40.9956C68.9947 40.8222 68.5638 40.7447 68.1326 40.7692C67.7014 40.7938 67.282 40.9198 66.9086 41.1369C65.8811 41.7103 65.085 42.6231 64.6566 43.719C64.2282 44.8149 64.1943 46.0257 64.5606 47.1439C64.717 47.5366 64.9599 47.8889 65.2713 48.1747C65.5827 48.4605 65.9546 48.6724 66.3592 48.7945C66.7638 48.9167 67.1908 48.946 67.6083 48.8802C68.0258 48.8145 68.4231 48.6555 68.7706 48.4149L68.7686 48.4159Z" fill="black"/>
</g>
<defs>
<clipPath id="clip0_1721_849">
<rect width="100" height="100" fill="white"/>
</clipPath>
</defs>
</svg>
