<svg width="100" height="100" viewBox="0 0 100 100" fill="none" xmlns="http://www.w3.org/2000/svg">
<g clip-path="url(#clip0_1721_854)">
<path d="M17.7871 50.8341C17.8644 51.0854 17.8397 51.3571 17.7182 51.5903C17.5968 51.8235 17.3884 51.9994 17.1381 52.0801C15.6963 52.5312 14.1545 52.5543 12.6998 52.1465C11.2451 51.7387 9.93995 50.9177 8.94266 49.7828C7.94537 48.648 7.29883 47.2482 7.08133 45.7532C6.86384 44.2582 7.08477 42.7321 7.71738 41.3602C8.34999 39.9882 9.36709 38.8293 10.6453 38.024C11.9235 37.2186 13.4079 36.8015 14.9186 36.8231C16.4292 36.8446 17.9011 37.304 19.1557 38.1456C20.4104 38.9871 21.3939 40.1746 21.9871 41.5641C22.0875 41.8065 22.0885 42.0786 21.9901 42.3218C21.8918 42.565 21.7018 42.7597 21.4611 42.8641H21.4531C21.3333 42.914 21.2048 42.9397 21.075 42.9399C20.9452 42.9401 20.8167 42.9148 20.6967 42.8653C20.5767 42.8158 20.4676 42.7432 20.3757 42.6515C20.2838 42.5598 20.2109 42.451 20.1611 42.3311C19.7499 41.3582 19.0824 40.5151 18.2298 39.8917C17.3772 39.2682 16.3714 38.8877 15.3197 38.7908C14.2679 38.6938 13.2096 38.884 12.2574 39.3411C11.3052 39.7982 10.4948 40.5051 9.91263 41.3864C9.33046 42.2677 8.9983 43.2903 8.95151 44.3455C8.90473 45.4007 9.14506 46.4488 9.64695 47.3782C10.1488 48.3075 10.8935 49.0834 11.8015 49.6229C12.7095 50.1625 13.7469 50.4456 14.8031 50.4421C15.3933 50.4434 15.9803 50.3537 16.5431 50.1761H16.5501C16.8014 50.0994 17.0729 50.1256 17.3048 50.249C17.5368 50.3724 17.7102 50.5829 17.7871 50.8341ZM49.5181 45.4471C48.9205 46.1645 48.2764 46.842 47.5901 47.4751C44.0541 50.8931 40.4901 54.2751 36.9711 57.7201C35.6607 59.038 34.6247 60.6027 33.923 62.3237C33.2213 64.0446 32.8678 65.8877 32.8831 67.7461C32.7591 71.9461 32.8491 76.1561 32.8591 80.3561C32.8591 82.1651 33.2001 82.4841 35.0371 82.5061C35.7234 82.4739 36.4111 82.4843 37.0961 82.5371C37.5745 82.5981 38.0255 82.7944 38.3961 83.1031C38.5094 83.2532 38.5877 83.4267 38.6255 83.611C38.6632 83.7952 38.6593 83.9855 38.6141 84.1681C38.5601 84.3811 38.1041 84.6111 37.8201 84.6231C36.4961 84.6761 35.1691 84.6571 33.8441 84.6571C31.1901 84.6571 28.5441 84.6571 25.8901 84.6421C25.3261 84.6421 24.6291 84.7881 24.5511 83.8971C24.5377 83.5692 24.6537 83.2492 24.8741 83.006C25.0944 82.7628 25.4015 82.616 25.7291 82.5971C26.6076 82.516 27.4901 82.4852 28.3721 82.5051C29.9341 82.4711 30.3961 82.0321 30.3961 80.4641C30.4081 76.2111 30.4961 71.9551 30.3761 67.7061C30.3693 65.798 29.9826 63.9103 29.2383 62.1534C28.494 60.3964 27.4071 58.8054 26.0411 57.4731C22.1991 53.7301 18.3191 50.0261 14.4531 46.3081C13.9641 45.8331 13.2531 45.4081 13.5531 44.6081C13.8531 43.7911 14.6861 43.9741 15.3531 43.9741H40.5611C40.7941 43.9581 41.028 43.9581 41.2611 43.9741C43.4451 43.9701 45.6295 43.9701 47.8141 43.9741C48.2059 43.9521 48.5989 43.9732 48.9861 44.0371C49.7801 44.2201 50.0261 44.8061 49.5181 45.4471ZM37.7451 54.9041C36.7374 55.1655 35.7011 55.2999 34.6601 55.3041C34.2012 55.304 33.7427 55.2767 33.2871 55.2221C32.0252 55.0184 30.7947 54.653 29.6261 54.1351C27.7236 53.2196 25.615 52.8171 23.5091 52.9671C24.4421 53.8671 25.3741 54.7671 26.3161 55.6591C29.0649 58.2177 30.9518 61.5664 31.7161 65.2431C31.7601 65.1141 31.7981 64.9821 31.8291 64.8491C32.4083 61.5163 34.0397 58.4565 36.4841 56.1181C36.9011 55.7101 37.3261 55.3101 37.7451 54.9041ZM45.7851 47.2521C46.2965 46.7817 46.7455 46.2477 47.1211 45.6631C44.5921 45.4141 42.0861 45.4941 39.5921 45.4411H16.2121C16.1741 45.5831 16.1371 45.7361 16.0991 45.8831C16.9541 46.6831 17.8121 47.4741 18.6541 48.2831C19.8594 49.4391 21.0595 50.5984 22.2541 51.7611C24.929 51.2801 27.6875 51.6596 30.1331 52.8451C31.1928 53.3179 32.3085 53.654 33.4531 53.8451C35.8594 54.0709 38.2771 53.5544 40.3811 52.3651C41.4601 51.3291 42.5321 50.2861 43.6131 49.2521C44.3231 48.5701 45.0721 47.9291 45.7861 47.2521H45.7851Z" fill="black"/>
<path d="M65.9272 52.162C65.6712 51.202 65.4163 50.243 65.1723 49.28C65.0483 48.78 64.6723 48.79 64.4373 48.78L53.2372 48.785C53.1467 48.7699 53.0541 48.7729 52.9647 48.7939C52.8753 48.8148 52.791 48.8533 52.7166 48.907C52.6422 48.9608 52.5792 49.0288 52.5312 49.107C52.4833 49.1853 52.4513 49.2723 52.4373 49.363C51.8693 51.623 51.2912 53.88 50.7072 56.119C50.3008 57.4015 50.0654 58.732 50.0072 60.076C49.9474 61.6439 50.2586 63.2037 50.9154 64.6286C51.5723 66.0535 52.5562 67.3032 53.7872 68.276C54.5352 68.868 55.3183 69.435 56.0753 69.984L56.3322 70.17C56.8454 70.5184 57.2616 70.9916 57.5415 71.5451C57.8214 72.0986 57.9558 72.7142 57.9323 73.334C57.9263 75.558 57.9323 77.108 57.9323 78.856V82.189C57.8933 82.189 57.8552 82.189 57.8172 82.189H54.8992C54.6996 82.1797 54.4995 82.1964 54.3042 82.239C54.1199 82.2724 53.9536 82.3705 53.8353 82.5158C53.717 82.661 53.6546 82.8438 53.6593 83.031C53.6397 83.2317 53.6942 83.4326 53.8124 83.596C53.9307 83.7593 54.1045 83.8738 54.3013 83.918C54.4585 83.952 54.6194 83.9662 54.7802 83.96H62.7112C62.7552 83.96 62.7992 83.96 62.8432 83.96C63.008 83.9594 63.1724 83.9436 63.3342 83.913C63.5563 83.852 63.7451 83.7054 63.8593 83.5054C63.9734 83.3054 64.0036 83.0682 63.9433 82.846C63.9011 82.6961 63.82 82.5601 63.7081 82.4519C63.5961 82.3436 63.4575 82.2671 63.3062 82.23C63.1391 82.1987 62.9693 82.1843 62.7993 82.187H61.9592C61.2362 82.187 60.5153 82.187 59.7943 82.194C59.7683 82.192 59.7422 82.192 59.7162 82.194C59.7127 82.1628 59.711 82.1314 59.7112 82.1C59.7112 80.215 59.7112 78.784 59.7112 77.324C59.7112 76.035 59.7112 74.724 59.7112 73.046C59.6792 72.367 59.8953 71.6994 60.3192 71.168C60.7916 70.6549 61.3065 70.1826 61.8582 69.756C62.8845 69.0286 63.8669 68.2413 64.8002 67.398C66.002 66.1664 66.8677 64.6472 67.3147 62.9855C67.7617 61.3238 67.7749 59.5753 67.3533 57.907C66.9453 55.977 66.4272 54.037 65.9272 52.162ZM52.0833 57.795L52.6902 55.437C53.1022 53.841 53.5122 52.245 53.9202 50.649C53.9285 50.6119 53.9406 50.5757 53.9563 50.541C53.9905 50.532 54.0259 50.5286 54.0612 50.531C57.1772 50.538 60.2963 50.54 63.4673 50.526C63.4956 50.5203 63.5249 50.5203 63.5532 50.5262C63.5816 50.532 63.6085 50.5435 63.6322 50.56C63.6802 50.594 63.7123 50.643 63.7323 50.772C64.1793 52.56 64.6402 54.344 65.1012 56.128L65.4662 57.543C64.4631 57.0664 63.3489 56.8728 62.2438 56.983C61.1387 57.0931 60.0846 57.5028 59.1953 58.168C59.1473 58.201 59.1172 58.216 59.1162 58.202C58.1047 57.4342 56.8792 57.0002 55.6098 56.9602C54.3405 56.9203 53.0901 57.2763 52.0322 57.979L52.0432 57.935L52.0793 57.796L52.0833 57.795ZM62.9592 60.009C62.1161 60.0382 61.2833 59.8166 60.5663 59.372C61.2319 58.9364 62.0151 58.7154 62.8102 58.739H62.8472C63.6585 58.7141 64.4583 58.9355 65.1413 59.374C64.4957 59.8025 63.7349 60.024 62.9603 60.009H62.9592ZM51.8053 60.557C52.2212 60.0114 52.7524 59.5643 53.3611 59.2476C53.9697 58.9309 54.6407 58.7525 55.3262 58.725H55.4413C56.0164 58.7259 56.5857 58.8402 57.1166 59.0614C57.6475 59.2826 58.1296 59.6063 58.5352 60.014C59.48 60.9406 60.6975 61.5391 62.0083 61.7213C63.319 61.9035 64.6536 61.6598 65.8152 61.026C65.7822 61.341 65.7503 61.633 65.6933 61.926V61.939C65.5265 63.0403 65.1203 64.0915 64.5033 65.0188C63.8864 65.9461 63.0736 66.7268 62.1223 67.306C61.284 67.8284 60.3095 68.0902 59.3223 68.058C58.4022 68.1249 57.4776 68.0339 56.5882 67.789C55.6015 67.4377 54.7089 66.8641 53.9794 66.1126C53.2499 65.361 52.7031 64.4517 52.3813 63.455C52.1135 62.5454 51.9153 61.6167 51.7883 60.677C51.7782 60.6362 51.7836 60.5931 51.8053 60.557ZM84.0972 49.644C83.5743 48.8423 82.8418 48.199 81.9792 47.784C81.6995 47.6491 81.4634 47.4382 81.2979 47.1754C81.1324 46.9126 81.0441 46.6086 81.0432 46.298L81.0623 30.729C81.0364 30.5387 80.9466 30.3629 80.8076 30.2304C80.6685 30.0979 80.4886 30.0166 80.2973 30H80.2903C78.9843 30.016 77.6772 30.014 76.3692 30.011H74.1902V35.087C74.1902 38.724 74.1843 41.887 74.2083 46.077C74.2305 46.4419 74.1309 46.8038 73.9251 47.1059C73.7193 47.408 73.4189 47.6332 73.0712 47.746C72.2631 48.0746 71.5566 48.6117 71.0238 49.3024C70.4909 49.9932 70.1509 50.8129 70.0383 51.678C69.9556 52.3188 69.9222 52.9651 69.9382 53.611C69.9309 63.2777 69.9286 72.932 69.9312 82.574C69.9054 82.8239 69.9322 83.0764 70.0098 83.3152C70.0874 83.5541 70.2142 83.7742 70.3819 83.9611C70.5497 84.1481 70.7547 84.2979 70.9838 84.4008C71.2129 84.5038 71.4611 84.5577 71.7122 84.559C71.7657 84.5593 71.8192 84.5563 71.8723 84.55C72.3153 84.55 72.7592 84.55 73.2032 84.545C73.6472 84.54 74.0882 84.539 74.5312 84.539C77.4066 84.539 80.2669 84.5423 83.1122 84.549C83.4212 84.5726 83.7306 84.508 84.0044 84.3629C84.2782 84.2177 84.5053 83.998 84.6593 83.729C84.8545 83.3475 84.9572 82.9255 84.9592 82.497C84.9732 76.283 84.9762 70.0694 84.9682 63.856V52.675C84.9903 51.6002 84.6875 50.5438 84.0992 49.644H84.0972ZM83.1133 82.433C83.1133 82.489 83.1132 82.6 83.1062 82.67C83.0372 82.677 82.9263 82.677 82.8723 82.677H77.2832C75.5299 82.677 73.7779 82.6787 72.0273 82.682C71.9773 82.682 71.8633 82.682 71.7943 82.676C71.7873 82.605 71.7872 82.488 71.7872 82.437V75.356C71.7872 67.72 71.7929 60.0817 71.8042 52.441C71.7911 51.8115 71.9688 51.1928 72.314 50.6662C72.6592 50.1397 73.1557 49.73 73.7383 49.491C74.5555 49.1893 75.2428 48.6136 75.6832 47.862C75.8936 47.4228 76.0188 46.9478 76.0522 46.462C76.1092 45.752 76.0792 37.29 76.0652 36.526C76.0652 36.496 76.0652 36.474 76.0652 36.46C76.0812 36.4588 76.0973 36.4588 76.1133 36.46C77.1363 36.47 78.1613 36.471 79.2043 36.418C79.2112 36.4464 79.2135 36.4758 79.2112 36.505C79.2112 36.73 79.2112 37.748 79.2112 39.055C79.2182 41.795 79.2292 45.935 79.1992 46.404C79.1643 47.0228 79.3163 47.6379 79.6356 48.1691C79.9548 48.7004 80.4264 49.1234 80.9892 49.383C81.3557 49.5776 81.7018 49.8084 82.0222 50.072C82.3812 50.3993 82.6648 50.8007 82.8534 51.2484C83.0419 51.6962 83.1309 52.1795 83.1142 52.665C83.1142 53.4217 83.1142 54.1787 83.1142 54.936C83.1142 56.182 83.1143 57.428 83.1243 58.671C83.1239 58.7379 83.1196 58.8047 83.1113 58.871C83.0502 58.8902 82.986 58.897 82.9223 58.891C80.6903 58.878 78.4582 58.879 76.2222 58.883H73.5923V77.41H76.4922C78.6262 77.41 80.7592 77.41 82.8922 77.4C82.9632 77.4004 83.034 77.4057 83.1042 77.416C83.1266 77.484 83.1341 77.5559 83.1263 77.627C83.1082 78.742 83.1113 79.858 83.1133 80.974V82.433ZM83.1133 75.533C83.0632 75.545 83.0117 75.5497 82.9603 75.547C81.7363 75.54 80.5032 75.535 79.2722 75.535C78.0412 75.535 76.8082 75.535 75.5862 75.547C75.4862 75.547 75.4393 75.54 75.4303 75.547C75.419 75.4958 75.4146 75.4434 75.4173 75.391C75.4293 70.5724 75.4293 65.7537 75.4173 60.935C75.4173 60.823 75.4263 60.777 75.4173 60.772C75.4663 60.76 75.5168 60.7553 75.5672 60.758C78.0002 60.774 80.4672 60.774 82.8972 60.758C82.9622 60.7562 83.0271 60.7605 83.0912 60.771C83.1105 60.8324 83.1177 60.8969 83.1122 60.961C83.1022 62.628 83.1053 64.299 83.1073 65.968V68.024V70.036C83.1073 71.817 83.1072 73.597 83.1142 75.376C83.1212 75.478 83.1122 75.524 83.1172 75.529L83.1133 75.533ZM79.1842 33.551C78.2983 33.56 77.4102 33.558 76.4982 33.559H76.0872V31.912H79.1933V32.093C79.1983 32.58 79.2002 33.06 79.1882 33.546L79.1842 33.551Z" fill="black"/>
</g>
<defs>
<clipPath id="clip0_1721_854">
<rect width="100" height="100" fill="white"/>
</clipPath>
</defs>
</svg>
