<svg width="100" height="100" viewBox="0 0 100 100" fill="none" xmlns="http://www.w3.org/2000/svg">
<path fill-rule="evenodd" clip-rule="evenodd" d="M79.7351 49.6881C79.6634 49.4857 79.6059 49.2785 79.5631 49.0681C79.5471 48.9791 79.516 48.8935 79.4711 48.8151L79.1601 48.2781C79.1059 48.1804 79.0299 48.0965 78.9381 48.0331C77.1381 46.7861 74.0121 50.0571 73.6021 50.5941C72.4021 52.1611 71.4241 52.9881 70.6861 53.0521C70.0941 53.1111 69.5121 52.6221 68.6631 51.8391C68.1622 51.3475 67.6184 50.9017 67.0381 50.5071C66.4881 50.1571 65.9781 49.8071 65.4931 49.4631C65.8535 49.5491 66.2225 49.594 66.5931 49.5971C67.4473 49.5982 68.2856 49.3654 69.0171 48.9241C69.5835 48.5833 70.0771 48.134 70.4696 47.602C70.862 47.07 71.1456 46.4658 71.3041 45.8241C71.6365 44.5395 71.4538 43.1759 70.7951 42.0241C70.4827 41.4679 70.0638 40.9787 69.5624 40.5844C69.0609 40.1901 68.4867 39.8984 67.8725 39.7261C67.2583 39.5537 66.6162 39.504 65.9828 39.5799C65.3495 39.6557 64.7372 39.8556 64.1811 40.168C64.1401 40.191 64.1001 40.2141 64.0611 40.2381C63.0518 40.8883 62.3006 41.8698 61.9367 43.014C61.5728 44.1581 61.6189 45.3933 62.0671 46.5071L62.0441 46.4861C61.5724 45.9449 60.905 45.6133 60.1888 45.5642C59.4726 45.5151 58.7663 45.7524 58.2251 46.224C58.1691 46.273 58.1141 46.324 58.0631 46.379C57.8251 46.606 57.5941 46.8411 57.3751 47.0891C56.1501 48.4591 54.7831 49.7811 53.4591 51.0621C50.7301 53.6971 47.9091 56.4201 46.0411 59.8481C45.9971 59.9291 45.9531 59.9971 45.9101 60.0751C43.7405 59.9841 41.6542 59.2146 39.9451 57.875C38.2647 56.6499 36.9687 54.9709 36.2091 53.0351C36.1188 52.6646 35.8852 52.3451 35.5594 52.1469C35.2337 51.9487 34.8426 51.8879 34.4721 51.978C34.394 51.9967 34.3177 52.0222 34.2441 52.0541C33.1828 52.3925 32.1014 52.664 31.0061 52.8671C27.8984 53.5675 24.6575 53.3944 21.6421 52.3671C21.3552 52.2757 21.047 52.2757 20.7601 52.3671C20.7071 52.3791 20.6531 52.3921 20.6051 52.3981C20.4839 52.4283 20.3717 52.4874 20.2782 52.5703C20.1848 52.6531 20.1127 52.7574 20.0681 52.8741C20.018 53.0001 19.9964 53.1356 20.0047 53.2709C20.013 53.4063 20.051 53.5381 20.1161 53.6571C20.2139 53.9632 20.4146 54.226 20.6841 54.4011L21.3841 54.8011C22.2326 55.3206 23.1203 55.7733 24.0391 56.155C26.3369 56.9885 28.7956 57.2824 31.2251 57.0141C31.4401 57.2851 31.6311 57.5761 31.8251 57.8731C31.9961 58.1321 32.1661 58.3911 32.3501 58.6381C33.7083 60.5676 35.2855 62.3334 37.0501 63.9001C34.0947 63.9461 31.1344 63.9741 28.1691 63.9841C27.5391 63.9841 27.0831 63.989 26.7571 64.375C26.4311 64.761 26.4921 65.2341 26.5711 65.8261C26.9129 68.0441 26.8039 70.3083 26.2504 72.4833C25.697 74.6582 24.7105 76.6992 23.3501 78.4841C23.2251 78.6582 23.1172 78.8441 23.0281 79.0391L22.9361 79.2271C22.8928 79.3915 22.883 79.563 22.9072 79.7313C22.9314 79.8997 22.9892 80.0614 23.0771 80.2071C23.1315 80.2998 23.2057 80.3794 23.2943 80.4403C23.383 80.5011 23.484 80.5417 23.5901 80.5591C23.6966 80.5761 23.8042 80.5851 23.9121 80.586C24.5793 80.5365 25.204 80.2398 25.6641 79.754L25.8641 79.5841C27.836 77.9445 29.2622 75.7437 29.9531 73.2741C30.1991 72.4611 30.3831 71.6301 30.5711 70.7841C30.6131 70.5951 30.6541 70.4041 30.6981 70.2141C30.8611 70.2141 31.0281 70.2091 31.1981 70.2001C32.1981 70.1481 33.1121 70.0571 33.9901 69.9711C35.9275 69.6981 37.8924 69.6817 39.8341 69.922C46.0911 70.849 46.6341 70.4321 51.8831 64.6601L53.1831 63.2391C54.2241 62.1516 55.4012 61.2031 56.6851 60.4171C58.2185 59.4947 59.5959 58.3349 60.7661 56.9811C61.3031 56.3211 61.7991 55.6191 62.2981 54.9121L62.5981 54.4931L62.8261 54.6371C65.3871 56.2551 68.2821 57.9961 70.2261 58.1711C72.8731 58.4141 73.6861 57.447 74.8161 56.112C76.0279 54.6089 77.4946 53.3304 79.1491 52.3351C79.5589 52.0461 79.8461 51.6146 79.9545 51.125C80.0629 50.6354 79.9846 50.123 79.7351 49.6881ZM64.7981 41.5391C65.3195 41.2264 65.9162 41.0619 66.5241 41.0631C67.1314 41.0616 67.7283 41.2201 68.255 41.5226C68.7816 41.825 69.2193 42.2608 69.5241 42.7861C69.981 43.5973 70.1059 44.554 69.8724 45.4554C69.639 46.3568 69.0654 47.1326 68.2721 47.6201C67.885 47.8515 67.4547 48.0013 67.0075 48.0603C66.5604 48.1193 66.1059 48.0862 65.6721 47.9631C65.2376 47.8479 64.8306 47.647 64.475 47.3722C64.1193 47.0975 63.8222 46.7543 63.6011 46.3631C63.1615 45.5546 63.041 44.6107 63.2631 43.7177C63.4853 42.8247 64.034 42.0474 64.8011 41.5391H64.7981ZM33.5081 57.6961C33.3391 57.4721 33.1861 57.2361 33.0331 57.0021C32.8242 56.6681 32.5975 56.3457 32.3541 56.0361C32.1919 55.8613 31.9927 55.725 31.7711 55.6371C31.5494 55.5492 31.311 55.5119 31.0731 55.5281C28.8653 55.7474 26.6364 55.4724 24.5481 54.7231C24.4151 54.6701 24.2831 54.6161 24.1481 54.5581C26.5104 54.8794 28.9096 54.8067 31.2481 54.3431C32.4013 54.1284 33.5398 53.8414 34.6571 53.4841C34.7161 53.4661 34.7641 53.4551 34.7821 53.4461C34.7992 53.4808 34.8143 53.5165 34.8271 53.5531C35.6866 55.7456 37.1464 57.6517 39.0391 59.0531C40.7574 60.3885 42.8099 61.2257 44.9721 61.4731C43.3011 63.6211 41.5571 63.8231 39.2291 63.8541C39.184 63.6627 39.0659 63.4966 38.9001 63.3911C36.8 61.7997 34.9757 59.8741 33.5001 57.6911L33.5081 57.6961ZM78.3851 51.0221C76.596 52.0969 75.0102 53.4783 73.7001 55.103C72.6451 56.353 72.2571 56.8211 70.3501 56.6471C68.5891 56.4881 65.2141 54.357 63.5911 53.3321L62.8001 52.8221C62.6442 52.7212 62.4554 52.6843 62.2731 52.7192C62.0907 52.754 61.9288 52.8578 61.8211 53.0091C61.5791 53.3411 61.3441 53.6751 61.1091 54.0091C60.6311 54.6881 60.1601 55.361 59.6441 55.991C58.565 57.2303 57.2966 58.2911 55.8861 59.1341C54.5012 59.9819 53.2315 61.0046 52.1081 62.1771L50.8081 63.603C45.6861 69.237 45.6851 69.2401 40.0411 68.4031C37.9835 68.1455 35.901 68.1593 33.8471 68.444C32.9881 68.529 32.0971 68.6181 31.1221 68.6661C30.8901 68.6791 30.6591 68.6811 30.4401 68.6821H30.1031C29.9388 68.6858 29.7804 68.7446 29.6535 68.8491C29.5266 68.9535 29.4384 69.0976 29.4031 69.2581C29.3101 69.6491 29.2241 70.0371 29.1371 70.4211C28.9601 71.2281 28.7851 72.0211 28.5501 72.7981C28.0089 74.7123 26.9772 76.452 25.5571 77.8451C27.7964 74.1826 28.6711 69.8473 28.0271 65.603C28.0245 65.5594 28.0191 65.516 28.0111 65.4731H28.1881C31.3567 65.4611 34.5251 65.4314 37.6931 65.3841L38.5661 65.3741C41.8731 65.3551 44.7301 65.3351 47.3241 60.5741C49.0811 57.3531 51.8241 54.7061 54.4671 52.1501C55.8081 50.8501 57.1971 49.5131 58.4571 48.0981C58.6501 47.8831 58.8571 47.6761 59.0631 47.4761C59.1747 47.3528 59.3096 47.2527 59.4599 47.1815C59.6103 47.1103 59.7732 47.0695 59.9394 47.0613C60.1055 47.0532 60.2716 47.0778 60.4282 47.1339C60.5848 47.1899 60.7289 47.2763 60.8521 47.3881C60.9005 47.4313 60.9453 47.4785 60.9861 47.5291C62.5579 49.1673 64.3318 50.5988 66.2651 51.7891C66.771 52.1349 67.2446 52.5258 67.6801 52.9571C68.5861 53.7971 69.5061 54.6621 70.8131 54.5571C72.0221 54.4501 73.2401 53.5191 74.7591 51.5291C75.5181 50.5391 77.4191 49.1771 78.0151 49.2491L78.1501 49.4801C78.2011 49.7111 78.2741 49.9411 78.3501 50.1671C78.5831 50.8961 78.5411 50.9221 78.3881 51.0191L78.3851 51.0221ZM45.9171 58.685C46.0155 58.6853 46.1129 58.6652 46.2032 58.6262C46.2935 58.5871 46.3748 58.5299 46.4421 58.4581C46.5782 58.3131 46.653 58.1212 46.651 57.9224C46.6489 57.7235 46.5701 57.5332 46.4311 57.3911C44.9311 55.8911 44.3961 54.5821 44.9931 53.8991L51.3381 46.6451C52.2841 45.5591 53.2321 44.4751 54.1971 43.4081C54.3729 43.1914 54.6021 43.0242 54.8621 42.9228C55.1221 42.8215 55.404 42.7895 55.6801 42.8301C55.9521 42.8936 56.2035 43.0256 56.4102 43.2136C56.6169 43.4015 56.7721 43.6392 56.8611 43.9041C56.9314 44.0847 57.0705 44.23 57.2479 44.3081C57.4252 44.3863 57.6263 44.3909 57.8071 44.3211L57.8211 44.3161C58.0026 44.236 58.1459 44.0884 58.2205 43.9046C58.2952 43.7207 58.2954 43.5151 58.2211 43.3311C58.0414 42.833 57.7372 42.3892 57.3373 42.0421C56.9375 41.695 56.4555 41.456 55.9371 41.3481C55.4172 41.2588 54.8831 41.3076 54.388 41.4896C53.8929 41.6715 53.4543 41.9803 53.1161 42.3851C52.1501 43.4591 51.1931 44.548 50.2401 45.6381L43.8951 52.8961C43.3261 53.5471 42.3331 55.3961 45.3951 58.4801C45.4642 58.547 45.5459 58.5996 45.6355 58.6346C45.7252 58.6697 45.8209 58.6874 45.9171 58.685ZM74.2851 44.6561C74.3469 44.6574 74.4087 44.6544 74.4701 44.6471C75.0633 44.5871 75.6089 44.2955 75.9884 43.8357C76.3679 43.3758 76.5507 42.7849 76.4971 42.1911C76.4783 41.8983 76.4019 41.6121 76.2725 41.3489C76.143 41.0857 75.9629 40.8505 75.7426 40.6569C75.5222 40.4633 75.2658 40.315 74.9881 40.2204C74.7104 40.1259 74.4168 40.0871 74.1241 40.1061H74.1071C73.8162 40.132 73.5335 40.2162 73.2758 40.3536C73.0181 40.491 72.7907 40.6789 72.6071 40.9061C72.2266 41.3705 72.0406 41.9642 72.088 42.5627C72.1353 43.1612 72.4123 43.7182 72.8611 44.1171C73.2552 44.4626 73.7609 44.654 74.2851 44.6561ZM73.7201 41.8801C73.782 41.8032 73.8591 41.7399 73.9465 41.694C74.0338 41.6481 74.1297 41.6205 74.2281 41.6131C74.2484 41.612 74.2688 41.612 74.2891 41.6131C74.4836 41.6192 74.6685 41.6988 74.8066 41.8358C74.9447 41.9729 75.0257 42.1572 75.0333 42.3516C75.0409 42.546 74.9746 42.7361 74.8476 42.8835C74.7206 43.031 74.5425 43.1248 74.3491 43.1461C74.251 43.156 74.1519 43.1451 74.0583 43.1141C73.9648 43.083 73.8788 43.0326 73.8061 42.9661C73.6543 42.8307 73.5606 42.642 73.5446 42.4393C73.5286 42.2366 73.5915 42.0356 73.7201 41.8781V41.8801ZM73.4391 36.7991C73.6187 36.7818 73.7842 36.694 73.8991 36.5549C74.014 36.4158 74.0691 36.2367 74.0521 36.0571C74.0408 35.8789 73.9592 35.7125 73.8254 35.5944C73.6915 35.4763 73.5163 35.4161 73.3381 35.4271H73.3301C73.1505 35.4445 72.9852 35.5324 72.8703 35.6715C72.7555 35.8106 72.7004 35.9895 72.7171 36.1691C72.7287 36.3474 72.8106 36.5139 72.9448 36.6318C73.0791 36.7498 73.2547 36.8096 73.4331 36.7981L73.4391 36.7991ZM76.2311 39.5391C76.5333 39.5092 76.8114 39.361 77.0047 39.1268C77.1981 38.8926 77.291 38.5915 77.2631 38.2891C77.2438 37.9884 77.106 37.7076 76.8798 37.5085C76.6537 37.3094 76.3578 37.2082 76.0571 37.2271H76.0471C75.7447 37.2567 75.4663 37.4048 75.2728 37.639C75.0792 37.8732 74.9862 38.1745 75.0141 38.4771C75.0238 38.6262 75.0627 38.772 75.1288 38.9061C75.1948 39.0402 75.2867 39.1599 75.3991 39.2584C75.5115 39.357 75.6422 39.4324 75.7837 39.4804C75.9253 39.5284 76.0749 39.548 76.2241 39.5381L76.2311 39.5391Z" fill="black"/>
</svg>
