<svg width="100" height="100" viewBox="0 0 100 100" fill="none" xmlns="http://www.w3.org/2000/svg">
<path d="M31.757 35.999H28.308V50.299H31.757V35.999ZM31.6671 68.058C31.6671 66.775 31.741 65.491 31.752 64.208C31.768 62.327 31.752 60.447 31.752 58.461H28.291C28.232 59.02 28.147 59.49 28.138 59.961C28.0873 62.589 28.0473 65.2177 28.018 67.847C27.961 73.683 31.1021 77.911 36.7061 79.485C37.7042 79.7104 38.7136 79.8826 39.73 80.001V76.418C39.109 76.278 38.58 76.153 38.05 76.035C36.1896 75.7268 34.5087 74.7418 33.3304 73.2693C32.1522 71.7968 31.5598 69.9408 31.6671 68.058ZM71.035 49.173C70.866 48.2564 70.3854 47.4264 69.6747 46.8235C68.9641 46.2205 68.0669 45.8815 67.135 45.864C65.308 45.72 63.477 45.555 61.648 45.543C54.248 45.493 46.854 45.459 39.458 45.499C35.871 45.519 34.5351 46.749 33.8831 50.278C33.7401 51.051 33.589 51.825 33.41 52.771H28V56.163H32.979C33.038 56.714 33.079 56.95 33.088 57.19C33.349 61.375 34.526 62.877 38.57 64.167C38.977 64.297 39.386 64.424 39.799 64.53C44.188 65.651 45.841 64.886 47.944 60.838C48.5626 59.5754 49.269 58.3578 50.058 57.194C51.605 55.031 53.543 55.078 55.112 57.25C55.5597 57.9065 55.9627 58.5923 56.3181 59.303C56.8931 60.383 57.392 61.503 58.001 62.563C58.4381 63.4878 59.1692 64.2417 60.0802 64.7069C60.9912 65.1721 62.0306 65.3223 63.036 65.134C64.7769 64.8289 66.4888 64.3762 68.153 63.781C69.2404 63.4253 70.1889 62.7378 70.8653 61.8151C71.5417 60.8925 71.9119 59.781 71.924 58.637C72.125 55.4553 71.825 52.2617 71.035 49.173ZM66.535 62.431C65.4235 62.7579 64.2952 63.025 63.155 63.231C62.3739 63.4356 61.5444 63.3397 60.8304 62.9624C60.1165 62.585 59.57 61.9537 59.299 61.193C58.9938 60.4586 58.6348 59.7476 58.225 59.066C57.209 57.557 56.104 56.111 55.065 54.619C54.7128 54.1289 54.4211 53.598 54.196 53.038C53.748 51.864 53.375 50.66 52.871 49.171C52.49 50.098 52.213 50.747 51.954 51.405C51.4266 52.821 50.5899 54.1014 49.505 55.153C48.27 56.5055 47.2465 58.0367 46.4691 59.695C44.4901 63.381 43.8391 63.719 39.7921 62.643C35.6441 61.543 34.516 59.899 35.028 55.579C35.258 53.636 35.569 51.705 35.884 49.779C35.9225 49.1255 36.217 48.5135 36.7037 48.0756C37.1904 47.6378 37.8301 47.4094 38.484 47.44C39.704 47.401 40.924 47.24 42.143 47.249C49.8463 47.331 57.549 47.431 65.251 47.549C65.8 47.557 66.351 47.62 66.897 47.672C67.4895 47.672 68.0612 47.8904 68.5029 48.2854C68.9445 48.6803 69.2251 49.2242 69.291 49.813C69.7216 52.4037 69.9984 55.0176 70.1201 57.641C70.1771 60.582 69.308 61.554 66.538 62.431H66.535ZM48.514 75.385C47.002 75.347 46.9231 77.749 45.1461 76.933C45.0691 76.609 44.998 76.257 44.903 75.912C44.691 75.139 44.226 74.442 43.403 74.648C43.1026 74.7515 42.8279 74.9184 42.5976 75.1374C42.3673 75.3563 42.1867 75.6222 42.0681 75.917C41.7901 76.5457 41.6417 77.2239 41.6319 77.9112C41.6221 78.5985 41.7511 79.2807 42.011 79.917C43.473 80.0322 44.9427 80.0078 46.4 79.844C47.442 79.5709 48.3784 78.9925 49.0891 78.183C50.052 77.137 49.779 76.337 48.514 75.385Z" fill="black"/>
</svg>
