<svg width="100" height="100" viewBox="0 0 100 100" fill="none" xmlns="http://www.w3.org/2000/svg">
<g clip-path="url(#clip0_1721_835)">
<path fill-rule="evenodd" clip-rule="evenodd" d="M61.4763 38.672C61.4958 38.0363 61.3255 37.4093 60.9871 36.8708C60.6487 36.3324 60.1575 35.907 59.5763 35.649C59.1298 35.4637 58.6512 35.3683 58.1678 35.3681C57.6845 35.368 57.2058 35.4631 56.7592 35.648C56.3126 35.8329 55.9068 36.104 55.565 36.4458C55.2232 36.7876 54.9521 37.1934 54.7673 37.64C54.7095 37.7772 54.6611 37.9182 54.6223 38.062C54.4223 38.723 54.3933 39.434 54.2533 40.115C52.8653 46.891 51.5053 53.672 50.0533 60.436C49.8001 61.5637 49.9818 62.7455 50.562 63.7451C51.1423 64.7447 52.0784 65.4886 53.1833 65.828C53.6373 65.948 54.0833 66.103 54.7393 66.309C54.7393 66.909 54.7463 67.472 54.7513 68.027C54.7913 73.61 54.8143 79.194 54.8853 84.777C54.9133 85.5878 55.2355 86.3607 55.7919 86.9513C56.3482 87.5419 57.1005 87.9097 57.9083 87.986C58.642 88.0526 59.3781 87.8866 60.0123 87.5115C60.6464 87.1363 61.1464 86.5711 61.4413 85.896C61.6691 85.2383 61.7808 84.5459 61.7713 83.85C61.6953 69.7746 61.6039 55.699 61.4973 41.623C61.5043 40.638 61.5503 39.651 61.4763 38.672ZM59.6893 40.033C59.6723 40.633 59.5583 41.241 59.5613 41.844C59.5803 46.163 59.6173 50.483 59.6473 54.795C59.6659 57.4236 59.6836 60.0516 59.7003 62.679C59.7463 69.577 59.7943 76.475 59.8443 83.373C59.8443 83.795 59.8643 84.22 59.8303 84.64C59.7513 85.61 59.3423 86.012 58.4253 86.067C58.0227 86.1072 57.6195 85.9965 57.2939 85.7563C56.9683 85.5161 56.7436 85.1635 56.6633 84.7669C56.6179 84.3944 56.6055 84.0187 56.6263 83.644C56.5863 77.8273 56.5459 72.0093 56.5053 66.19C56.4933 64.622 56.4323 64.665 54.8523 64.382C52.1313 63.89 51.4693 62.574 51.9413 60.172C53.2193 53.66 54.6593 47.178 55.9813 40.672C56.0653 39.6569 56.3653 38.6716 56.8613 37.782C57.0181 37.5105 57.2592 37.2978 57.548 37.1759C57.8368 37.0541 58.1574 37.0299 58.4613 37.107C58.7709 37.1468 59.0576 37.2913 59.2739 37.5165C59.4901 37.7416 59.623 38.034 59.6503 38.345C59.6965 38.9047 59.7125 39.4665 59.6983 40.028L59.6893 40.033ZM47.0243 76.921C46.9723 70.1743 46.9186 63.4253 46.8633 56.674C48.1573 55.8977 49.2076 54.7739 49.8947 53.4304C50.5818 52.0869 50.8783 50.5775 50.7503 49.074C50.6423 45.165 50.6843 41.252 50.6583 37.344C50.6583 36.925 50.6493 36.505 50.6213 36.087C50.6358 35.8708 50.5639 35.6578 50.4214 35.4946C50.2789 35.3315 50.0774 35.2316 49.8613 35.217C49.8079 35.2139 49.7543 35.2159 49.7013 35.223C49.4627 35.2192 49.2325 35.3103 49.0611 35.4763C48.8897 35.6422 48.7912 35.8694 48.7873 36.108V36.13C48.7673 36.406 48.7973 36.687 48.7993 36.966C48.8283 41.205 48.8353 45.442 48.8933 49.68C48.9602 50.475 48.8515 51.275 48.575 52.0234C48.2986 52.7719 47.861 53.4504 47.2933 54.011C46.5843 54.5924 45.838 55.1269 45.0593 55.611C45.0252 55.7264 45.0011 55.8445 44.9873 55.964C45.0693 65.1786 45.1503 74.393 45.2303 83.607C45.2298 84.0686 45.1672 84.528 45.0443 84.973C44.8383 85.733 44.1923 85.932 43.4893 85.981C43.1765 86.0036 42.8661 85.9124 42.6152 85.7243C42.3644 85.5361 42.19 85.2636 42.1243 84.957C42.0036 84.5559 41.9452 84.1387 41.9513 83.72C41.8783 74.7859 41.7973 65.853 41.7713 56.92C41.8336 56.4836 41.7442 56.039 41.5179 55.6607C41.2916 55.2825 40.9422 54.9934 40.5283 54.842C39.9142 54.5858 39.3684 54.1897 38.9344 53.6854C38.5004 53.1811 38.1901 52.5824 38.0283 51.937C37.8123 51.1728 37.6957 50.384 37.6813 49.59C37.6383 45.207 37.6423 40.826 37.6283 36.444C37.6283 35.687 37.2903 35.281 36.6783 35.32C35.9583 35.367 35.8783 35.861 35.8993 36.426C35.9063 36.57 35.8803 36.707 35.8803 36.846C35.8803 39.877 35.8633 42.907 35.8733 45.937C35.8733 47.008 36.0413 48.097 35.9563 49.152C35.7813 50.4845 35.9777 51.8394 36.5236 53.0675C37.0695 54.2956 37.9438 55.3491 39.0503 56.1119C39.338 56.3038 39.5705 56.5675 39.7249 56.8769C39.8792 57.1864 39.95 57.5307 39.9303 57.876C39.9393 64.623 40.0013 71.368 40.0513 78.115C40.0673 80.207 40.0803 82.299 40.1223 84.389C40.1368 84.9566 40.2898 85.512 40.568 86.007C40.8462 86.502 41.2411 86.9214 41.7185 87.2289C42.1958 87.5364 42.741 87.7226 43.3067 87.7712C43.8724 87.8198 44.4415 87.7295 44.9643 87.508C45.6246 87.2525 46.1852 86.7914 46.5633 86.1929C46.9415 85.5943 47.1171 84.89 47.0643 84.184C47.0123 81.761 47.0353 79.341 47.0243 76.921ZM40.1243 37.057C40.1573 41.33 40.1763 45.6049 40.2353 49.8789C40.2553 51.2639 40.6673 51.451 42.0923 50.753C42.0603 47.62 42.0303 44.562 42.0003 41.494C41.9843 39.869 41.9423 38.243 41.9683 36.619C41.9838 36.5011 41.9759 36.3813 41.9448 36.2665C41.9138 36.1517 41.8603 36.0442 41.7875 35.9502C41.7147 35.8562 41.624 35.7776 41.5207 35.7188C41.4173 35.6601 41.3033 35.6224 41.1853 35.608C41.1409 35.602 41.0961 35.5997 41.0513 35.601C40.4583 35.545 40.2513 36.019 40.1383 36.501C40.1112 36.685 40.1061 36.8717 40.1233 37.057H40.1243ZM44.4533 37.128C44.5033 39.593 44.5643 42.055 44.5973 44.518C44.6293 46.565 44.6333 48.61 44.6493 50.605C45.8973 51.23 46.2173 51.092 46.3033 49.974C46.3153 49.83 46.3173 49.686 46.3173 49.554C46.3073 45.37 46.2953 41.1846 46.2813 36.998C46.3269 36.6778 46.2862 36.3512 46.1633 36.052C46.0575 35.9164 45.9258 35.8033 45.776 35.719C45.6261 35.6347 45.461 35.581 45.2903 35.561C45.1952 35.5459 45.098 35.5497 45.0044 35.5722C44.9108 35.5947 44.8226 35.6354 44.7447 35.6921C44.6669 35.7488 44.601 35.8202 44.5508 35.9024C44.5006 35.9846 44.4671 36.0758 44.4523 36.171C44.4449 36.2119 44.4419 36.2534 44.4433 36.295C44.4323 36.573 44.4483 36.85 44.4533 37.128Z" fill="black"/>
</g>
<defs>
<clipPath id="clip0_1721_835">
<rect width="100" height="100" fill="white"/>
</clipPath>
</defs>
</svg>
