<svg width="100" height="100" viewBox="0 0 100 100" fill="none" xmlns="http://www.w3.org/2000/svg">
<g clip-path="url(#clip0_1721_858)">
<path d="M73.6262 84.529C73.1797 84.4952 72.7317 84.4848 72.2841 84.498C71.8341 84.533 71.7491 84.354 71.7491 83.945C71.8053 82.3494 71.7809 80.7521 71.6761 79.159C71.5851 77.4099 70.9737 75.7279 69.9204 74.3285C68.867 72.9292 67.4198 71.8764 65.7641 71.305C63.2251 70.328 60.6342 69.482 58.0642 68.581C57.0992 68.241 57.0222 68.147 56.9902 67.117C56.9902 67.057 56.9761 66.997 56.9621 66.882C56.7621 66.969 56.5791 67.044 56.4061 67.129C55.3951 67.634 54.3911 68.154 53.3681 68.64C53.2305 68.6827 53.1125 68.7729 53.0352 68.8945C52.9579 69.0161 52.9264 69.1613 52.9461 69.304C52.9781 69.876 52.9411 70.45 52.9591 71.024C52.9779 71.2564 52.9243 71.489 52.8056 71.6897C52.6868 71.8905 52.5089 72.0495 52.2962 72.145C49.9812 73.397 47.6801 74.677 45.3571 75.915C45.1833 75.9867 45.0381 76.1138 44.9439 76.2766C44.8497 76.4393 44.8118 76.6285 44.8361 76.815C44.8571 79.451 44.8361 82.086 44.8551 84.721C44.8551 85.102 44.7551 85.229 44.3621 85.229C42.9861 85.229 42.9862 85.243 42.9862 83.883C42.9862 81.247 42.9981 78.612 42.9771 75.977C42.9552 75.7082 43.0175 75.4392 43.1553 75.2074C43.2931 74.9755 43.4995 74.7923 43.7461 74.683C46.0821 73.437 48.3981 72.153 50.7291 70.899C50.8565 70.8487 50.9636 70.7577 51.0338 70.6401C51.104 70.5225 51.1333 70.385 51.1171 70.249C51.0941 69.63 51.1171 69.008 51.1081 68.389C51.0907 68.1859 51.138 67.9824 51.243 67.8077C51.348 67.633 51.5056 67.4959 51.6931 67.416C53.6021 66.461 55.5121 65.497 57.4221 64.551C57.5707 64.4553 57.7437 64.404 57.9205 64.4034C58.0973 64.4027 58.2706 64.4526 58.42 64.5472C58.5694 64.6418 58.6885 64.7772 58.7635 64.9373C58.8385 65.0974 58.8661 65.2757 58.8431 65.451C58.8581 65.926 58.7321 66.512 58.9631 66.84C59.1821 67.152 59.7841 67.199 60.2191 67.354C62.2191 68.06 64.2311 68.726 66.2131 69.475C68.2027 70.1501 69.9536 71.3882 71.2531 73.0391C72.5527 74.6899 73.3451 76.6825 73.5341 78.775C73.5576 78.8953 73.5879 79.0142 73.6251 79.131L73.6262 84.529ZM48.6062 41.043C48.4912 41.0739 48.3747 41.0989 48.2572 41.118C46.2372 41.3133 44.2172 41.507 42.1972 41.699C41.991 41.6906 41.7899 41.7643 41.6381 41.904C41.4862 42.0436 41.396 42.2378 41.3872 42.444V42.473C41.1722 44.719 40.9592 46.966 40.7622 49.212C40.6932 49.999 40.9802 50.292 41.7702 50.292H57.8502C58.6412 50.292 58.9271 49.999 58.8591 49.212C58.6591 46.977 58.4501 44.744 58.2371 42.512C58.2447 42.3035 58.1692 42.1005 58.0273 41.9475C57.8854 41.7945 57.6887 41.7041 57.4802 41.696H57.4242C55.8715 41.528 54.3181 41.3643 52.7641 41.205C52.1821 41.145 51.5982 41.098 51.0152 41.045L48.6062 41.043ZM42.5962 46.643C42.6962 45.606 42.7961 44.569 42.8881 43.531C42.9061 43.316 42.9472 43.207 43.1972 43.174C46.8461 42.6156 50.5522 42.5343 54.2221 42.932C54.9641 43.026 55.7092 43.089 56.4492 43.189C56.5103 43.2049 56.5666 43.2357 56.613 43.2786C56.6594 43.3215 56.6945 43.3752 56.7152 43.435C56.8862 45.135 57.0371 46.835 57.1921 48.541C57.1893 48.5788 57.183 48.6163 57.1732 48.653H42.4251C42.4831 47.967 42.5331 47.305 42.5951 46.642M57.2841 51.714C57.2841 52.914 57.2541 54.121 57.2901 55.324C57.3401 57.2426 56.655 59.1078 55.3751 60.538C52.6451 63.782 48.5461 64.254 45.3751 61.638C44.3994 60.9007 43.614 59.9409 43.0844 58.8387C42.5547 57.7364 42.2961 56.5235 42.3302 55.301C42.3602 54.101 42.3352 52.894 42.3352 51.691V51.275H40.7711C40.7711 53.082 40.7711 54.858 40.7761 56.635C40.7864 56.8621 40.8199 57.0877 40.8761 57.308C41.1709 58.7201 41.7823 60.047 42.6644 61.1885C43.5464 62.33 44.6761 63.2565 45.9682 63.898C47.2956 64.6675 48.8253 65.0162 50.3551 64.898C52.4635 64.6871 54.4343 63.7537 55.9332 62.256C56.8868 61.41 57.644 60.3659 58.1518 59.1967C58.6597 58.0274 58.9058 56.7613 58.8731 55.487C58.8451 54.214 58.8681 52.947 58.8671 51.677C58.8671 51.537 58.8532 51.397 58.8462 51.264H57.2801L57.2841 51.714ZM49.2151 68.139C49.1856 67.991 49.1236 67.8514 49.0335 67.7303C48.9434 67.6093 48.8274 67.5098 48.6941 67.439C46.5021 66.429 44.2978 65.4453 42.0811 64.488C41.9366 64.4151 41.7751 64.3826 41.6137 64.3938C41.4522 64.405 41.2967 64.4595 41.1637 64.5516C41.0306 64.6438 40.9248 64.7701 40.8575 64.9173C40.7902 65.0645 40.7638 65.2271 40.7811 65.388C40.7602 65.713 40.7602 66.039 40.7811 66.364C40.8231 66.764 40.6551 66.927 40.2871 67.053C37.9041 67.874 35.5012 68.653 33.1582 69.576C31.2055 70.2637 29.4975 71.5092 28.2459 73.1582C26.9944 74.8073 26.2542 76.7873 26.1171 78.853C25.9071 80.831 26.0361 82.846 26.0171 84.842V85.405H27.8671V84.837C27.8671 83.275 27.8541 81.706 27.8671 80.137C27.8633 79.5953 27.9061 79.0543 27.9951 78.52C28.2391 76.8051 28.9674 75.1954 30.0946 73.8802C31.2217 72.5649 32.7008 71.5987 34.3581 71.095C36.8441 70.238 39.3232 69.359 41.8042 68.495C42.0685 68.4471 42.3036 68.2974 42.4588 68.078C42.614 67.8587 42.6769 67.5873 42.6341 67.322V66.757C44.2341 67.466 45.7421 68.131 47.2451 68.818C47.3401 68.861 47.3982 69.07 47.4032 69.204C47.4222 69.678 47.4101 70.153 47.4101 70.646H49.2451C49.2451 69.778 49.2862 68.953 49.2212 68.14M63.7161 80.987C63.8315 81.0006 63.9484 80.9914 64.0603 80.9599C64.1721 80.9283 64.2766 80.875 64.3678 80.803C64.459 80.7311 64.5351 80.6418 64.5918 80.5404C64.6484 80.439 64.6846 80.3274 64.6981 80.212C64.7048 80.1666 64.7075 80.1208 64.7061 80.075C64.7126 79.8348 64.6234 79.602 64.4582 79.4276C64.293 79.2532 64.0653 79.1515 63.8252 79.145C63.7844 79.1442 63.7436 79.1458 63.7031 79.15C61.8151 79.142 59.9268 79.142 58.0382 79.15C57.7968 79.1292 57.5569 79.205 57.3713 79.3608C57.1857 79.5166 57.0695 79.7396 57.0482 79.981C57.0482 80.015 57.0482 80.049 57.0482 80.081C57.0444 80.3192 57.1352 80.5491 57.3007 80.7205C57.4663 80.8918 57.6929 80.9905 57.9311 80.995C57.9719 80.996 58.0127 80.9939 58.0532 80.989C58.9812 80.996 59.9102 80.989 60.8392 80.989C61.7982 80.989 62.7581 80.995 63.7181 80.989M51.2732 77.879C51.2786 77.5911 51.1986 77.308 51.0432 77.0656C50.8879 76.8232 50.6641 76.6323 50.4002 76.517C50.1364 76.4017 49.8443 76.3673 49.5608 76.4181C49.2774 76.4688 49.0153 76.6024 48.8078 76.8021C48.6003 77.0018 48.4567 77.2585 48.3951 77.5397C48.3335 77.821 48.3567 78.1142 48.4617 78.3824C48.5667 78.6505 48.7489 78.8814 48.9852 79.046C49.2215 79.2106 49.5013 79.3014 49.7891 79.307H49.8051C49.9946 79.3102 50.1829 79.276 50.3592 79.2064C50.5355 79.1368 50.6964 79.0331 50.8326 78.9014C50.9688 78.7696 51.0777 78.6123 51.1532 78.4384C51.2286 78.2645 51.269 78.0775 51.2721 77.888V77.875M48.3601 83.767C48.3615 84.055 48.4483 84.3361 48.6095 84.5748C48.7706 84.8135 48.999 84.999 49.2656 85.1079C49.5323 85.2168 49.8252 85.2441 50.1074 85.1865C50.3896 85.1289 50.6484 84.9889 50.851 84.7842C51.0536 84.5795 51.1909 84.3193 51.2456 84.0365C51.3003 83.7538 51.2699 83.4611 51.1583 83.1956C51.0467 82.9301 50.8588 82.7037 50.6185 82.545C50.3782 82.3863 50.0961 82.3024 49.8081 82.304C49.4222 82.3064 49.053 82.4617 48.7816 82.736C48.5101 83.0103 48.3585 83.3811 48.3601 83.767Z" fill="black"/>
</g>
<defs>
<clipPath id="clip0_1721_858">
<rect width="100" height="100" fill="white"/>
</clipPath>
</defs>
</svg>
