<svg width="100" height="100" viewBox="0 0 100 100" fill="none" xmlns="http://www.w3.org/2000/svg">
<g clip-path="url(#clip0_1721_867)">
<path d="M22.02 44.075H83.845C84.7821 44.0778 85.6804 44.4492 86.3458 45.109C87.0112 45.7688 87.3902 46.6639 87.401 47.601C87.426 50.801 87.501 60.522 87.468 67.283V67.46L87.621 67.546C88.152 67.8054 88.6059 68.199 88.938 68.6878C89.27 69.1766 89.4686 69.7438 89.514 70.3329C89.5281 70.7492 89.4584 71.164 89.309 71.5529C89.1596 71.9417 88.9336 72.2965 88.6445 72.5963C88.3553 72.8961 88.0089 73.1347 87.6257 73.298C87.2426 73.4613 86.8305 73.546 86.414 73.5469C86.239 73.5589 81.044 73.902 77.822 74.059L77.601 74.0699L77.546 74.2859C77.2076 75.6364 76.4331 76.8375 75.3425 77.703C74.2519 78.5685 72.9063 79.0499 71.5142 79.0727C70.1222 79.0955 68.7615 78.6583 67.6432 77.829C66.5249 76.9997 65.7114 75.8246 65.329 74.486L65.266 74.2639L65.035 74.2689C63.365 74.2999 59.965 74.322 56.573 74.322C49.928 74.322 39.417 74.2439 32.899 74.1699H32.669L32.607 74.3919C32.2383 75.7248 31.443 76.9001 30.3427 77.7379C29.2425 78.5757 27.898 79.0299 26.515 79.0308C25.1321 79.0317 23.787 78.5793 22.6857 77.743C21.5843 76.9066 20.7874 75.7323 20.417 74.3999L20.358 74.1909L20.141 74.1809C17.929 74.0809 15.28 73.8879 14.521 73.8319C13.6144 73.8174 12.7491 73.4501 12.1088 72.808C11.4686 72.1659 11.1039 71.2996 11.092 70.3929L11 62.947L17.553 46.9749C17.964 46.1314 18.597 45.4158 19.384 44.9049C20.171 44.394 21.0823 44.1071 22.02 44.075ZM43.672 46.1119H30.952V60.8389L43.672 60.0499V46.1119ZM58.43 46.1119H45.71V59.9119L58.43 59.124V46.1119ZM72.563 46.1119H60.463V58.9789L72.563 58.2329V46.1119ZM85.424 57.1479C85.407 53.2229 85.379 49.6539 85.364 47.8069V47.6169C85.3595 47.2169 85.1978 46.8348 84.9137 46.5531C84.6296 46.2714 84.246 46.113 83.846 46.1119H74.603V58.093L85.428 57.434L85.424 57.1479ZM67.135 73.1539C67.2371 74.2275 67.7395 75.2233 68.5424 75.9433C69.3452 76.6633 70.3896 77.0548 71.4679 77.04C72.5462 77.0251 73.5794 76.605 74.3621 75.8631C75.1447 75.1212 75.6195 74.1119 75.692 73.0359C75.701 72.9089 75.707 72.824 75.707 72.736C75.7078 71.6865 75.3244 70.6731 74.629 69.8871C73.9336 69.1012 72.9745 68.5971 71.9328 68.47C70.8911 68.343 69.8389 68.6019 68.975 69.1977C68.1111 69.7935 67.4954 70.685 67.244 71.7039C67.1596 72.0415 67.116 72.388 67.114 72.736C67.115 72.88 67.123 73.0179 67.135 73.1539ZM22.235 73.1099C22.2821 73.5993 22.414 74.0768 22.625 74.5209C22.9709 75.2611 23.521 75.887 24.2106 76.325C24.9001 76.7631 25.7005 76.995 26.5175 76.9935C27.3344 76.9921 28.1339 76.7572 28.8219 76.3167C29.5099 75.8762 30.0578 75.2483 30.401 74.507C30.6106 74.0616 30.7409 73.5831 30.786 73.093C30.798 72.963 30.806 72.8319 30.806 72.6929C30.8066 71.6429 30.4225 70.629 29.7262 69.843C29.0299 69.0569 28.0697 68.5533 27.0272 68.4273C25.9847 68.3013 24.9322 68.5617 24.0687 69.1592C23.2052 69.7567 22.5905 70.6499 22.341 71.6699C22.2583 72.0047 22.2157 72.3481 22.214 72.6929C22.2138 72.8322 22.2208 72.9714 22.235 73.1099ZM13.128 70.3879C13.1487 70.7789 13.3224 71.146 13.6114 71.41C13.9005 71.674 14.2818 71.8137 14.673 71.799C16.687 71.9499 18.503 72.0659 19.926 72.1329L20.202 72.1459L20.237 71.8729C20.4354 70.3496 21.1814 68.9505 22.3357 67.9368C23.49 66.9231 24.9738 66.3641 26.51 66.3641C28.0462 66.3641 29.53 66.9231 30.6843 67.9368C31.8386 68.9505 32.5846 70.3496 32.783 71.8729L32.817 72.1299H33.077C39.493 72.2029 49.908 72.2799 56.577 72.2799C59.33 72.2799 62.953 72.2649 64.841 72.2319L65.102 72.2269L65.133 71.968C65.3162 70.4513 66.042 69.0521 67.1765 68.0289C68.3109 67.0057 69.7773 66.4276 71.3048 66.4014C72.8323 66.3752 74.3177 66.9026 75.4866 67.8863C76.6555 68.87 77.4289 70.2434 77.664 71.7529L77.706 72.02L77.976 72.0059C81.24 71.8409 86.254 71.5109 86.292 71.5059C86.447 71.5183 86.6029 71.4977 86.7494 71.4455C86.8959 71.3932 87.0296 71.3105 87.1418 71.2028C87.254 71.0951 87.342 70.9648 87.4002 70.8206C87.4583 70.6763 87.4851 70.5213 87.479 70.3659C87.463 69.5589 86.158 69.103 86.145 69.098L85.422 68.8719L85.427 68.119C85.445 65.665 85.446 62.709 85.438 59.783V59.4639L85.12 59.4839L13.056 64.0839L13.128 70.3879ZM28.914 60.9779V46.1119H22.014C21.4778 46.1497 20.9597 46.3213 20.507 46.6111C20.0544 46.901 19.6816 47.2998 19.423 47.7709L13.578 62.015L28.914 60.9779ZM19.138 59.0309V55.9129C19.1377 55.7699 19.0807 55.6328 18.9795 55.5317C18.8782 55.4307 18.741 55.374 18.598 55.374H18.498C17.8906 56.5511 17.4157 57.792 17.082 59.0739C17.0923 59.2097 17.1534 59.3365 17.2532 59.4292C17.3529 59.5219 17.4839 59.5736 17.62 59.5739H18.602C18.7445 59.5721 18.8805 59.514 18.9804 59.4122C19.0802 59.3105 19.1358 59.1735 19.135 59.0309H19.138Z" fill="black"/>
</g>
<defs>
<clipPath id="clip0_1721_867">
<rect width="100" height="100" fill="white"/>
</clipPath>
</defs>
</svg>
