<svg width="100" height="100" viewBox="0 0 100 100" fill="none" xmlns="http://www.w3.org/2000/svg">
<g clip-path="url(#clip0_1721_876)">
<path d="M46.1902 53.7131C48.4662 59.7361 50.8223 65.9661 53.3663 72.5131C53.408 72.6211 53.4725 72.7188 53.5553 72.7997C53.6381 72.8807 53.7373 72.9428 53.8463 72.9821C53.9338 73.0152 54.0266 73.0321 54.1202 73.0321C54.2579 73.0322 54.3934 72.9978 54.5143 72.9321L54.7783 72.7861C54.9543 72.6861 55.1032 72.6101 55.2452 72.5191C57.2692 71.2351 60.1892 69.4491 63.0052 67.7281C72.1532 62.1361 72.1532 62.136 72.0052 61.404C71.9972 61.3654 71.9865 61.3273 71.9733 61.2901C65.5733 43.7771 43.1332 34.4071 40.1642 33.6901C40.0017 33.6497 39.8306 33.6614 39.675 33.7235C39.5195 33.7856 39.3874 33.8949 39.2972 34.0361L39.1363 34.287C39.0654 34.3961 39.0215 34.5205 39.0082 34.6499C38.995 34.7793 39.0128 34.9099 39.0602 35.0311C41.5822 41.5151 43.9262 47.7161 46.1902 53.7131ZM70.2433 61.3C69.0433 62.119 65.4172 64.3391 62.1642 66.3271C59.4102 68.0111 56.5553 69.7561 54.5323 71.0361C53.4183 68.1694 52.3382 65.3574 51.2922 62.6001C51.3011 62.58 51.3085 62.5592 51.3143 62.5381C51.3313 62.4381 53.0143 53.1991 61.1783 48.3381C65.1205 51.9365 68.2173 56.3631 70.2463 61.3H70.2433ZM59.9363 47.2001C55.327 50.2082 51.9188 54.7378 50.3052 60.0001C49.4232 57.6787 48.5566 55.3877 47.7053 53.1271C45.5933 47.5371 43.4132 41.77 41.0812 35.753C47.9493 38.5158 54.3194 42.3832 59.9393 47.2021L59.9363 47.2001ZM29.6902 54.9631C29.4201 55.1852 29.1843 55.446 28.9903 55.7371C28.6483 56.2683 28.4454 56.877 28.4005 57.5072C28.3556 58.1374 28.47 58.7687 28.7333 59.343C29.1863 60.392 29.9753 62.2791 30.7403 64.1041C31.4033 65.6851 32.0462 67.2211 32.4402 68.1331C32.7349 68.9166 33.2692 69.5872 33.9671 70.0495C34.665 70.5118 35.4909 70.7423 36.3273 70.7081H36.3453C38.6983 70.6981 41.0453 70.6951 43.4033 70.7251C43.5389 70.7323 43.6696 70.7789 43.7792 70.8591C44.7902 71.7991 45.7793 72.7591 46.7723 73.7251L47.7613 74.684C48.2933 75.2419 49.0237 75.5674 49.7942 75.5901H49.8473C50.1825 75.5804 50.5122 75.503 50.8167 75.3626C51.1212 75.2222 51.3942 75.0217 51.6193 74.7731C51.8566 74.5316 52.044 74.2457 52.1708 73.9318C52.2977 73.6178 52.3614 73.282 52.3585 72.9434C52.3555 72.6048 52.2859 72.2702 52.1536 71.9585C52.0212 71.6469 51.8288 71.3644 51.5873 71.1271C51.5303 71.0711 51.4693 71.0171 51.4073 70.9661L50.4843 70.0601C49.1843 68.7801 47.8303 67.454 46.4493 66.201C45.8438 65.6924 45.089 65.3951 44.2993 65.3541C43.3073 65.2951 42.3093 65.3031 41.3453 65.3101C40.8003 65.3101 40.2543 65.3181 39.7143 65.3101H39.6562C39.1912 64.3031 38.4423 62.5461 37.7153 60.8421C37.3723 60.0361 37.0393 59.2531 36.7513 58.5901C36.887 58.6001 37.0232 58.6021 37.1592 58.5961C37.8202 58.6501 38.4854 58.576 39.1183 58.378C40.7653 57.75 42.3722 56.9781 43.9272 56.2421L44.5433 55.9491C44.7537 55.8409 44.9401 55.6914 45.0914 55.5094C45.2426 55.3274 45.3555 55.1168 45.4233 54.8901C45.6132 54.3273 45.5773 53.7129 45.3232 53.1761C45.0949 52.7037 44.6964 52.3352 44.2076 52.1446C43.7189 51.9539 43.1762 51.9552 42.6883 52.1481C41.7883 52.5301 40.8992 52.9291 40.0082 53.3291L39.7313 53.4521C39.0228 53.8513 38.2272 54.0707 37.4142 54.0911C36.2022 54.0351 34.9793 54.048 33.7963 54.059C33.5433 54.059 33.2903 54.0591 33.0363 54.0651C33.7195 53.394 34.1092 52.4797 34.1202 51.5221C34.1113 50.5888 33.7361 49.6964 33.0754 49.0372C32.4148 48.378 31.5215 48.0048 30.5883 47.998H30.5812C30.0972 47.999 29.6181 48.096 29.1718 48.2834C28.7255 48.4709 28.3208 48.7451 27.9813 49.0901C27.665 49.4075 27.4154 49.7849 27.2471 50.2001C27.0788 50.6154 26.9953 51.06 27.0013 51.5081C27.0117 52.0193 27.125 52.5232 27.3344 52.9897C27.5438 53.4561 27.8451 53.8756 28.2203 54.223C28.6343 54.5982 29.1423 54.854 29.6902 54.9631ZM33.8033 55.6861C34.9663 55.6751 36.1662 55.6631 37.3312 55.7171C38.3972 55.714 39.4457 55.446 40.3823 54.9371L40.6573 54.813C41.5383 54.419 42.4203 54.0231 43.3083 53.6461C43.4223 53.6132 43.5444 53.6244 43.6505 53.6773C43.7566 53.7303 43.839 53.8212 43.8813 53.9321C43.94 54.1088 43.9274 54.3014 43.8463 54.4691L43.2292 54.7631C41.7032 55.4901 40.1293 56.243 38.5413 56.847C38.1004 56.9641 37.6425 57.003 37.1883 56.9621C36.9173 56.9551 36.6462 56.9501 36.3882 56.9621C36.2272 56.9691 36.0682 56.9671 35.8752 56.9621H35.5103C35.3744 56.9621 35.2408 56.9963 35.1218 57.0617C35.0027 57.1271 34.9022 57.2214 34.8293 57.3361C34.756 57.4508 34.7124 57.582 34.7025 57.7179C34.6925 57.8537 34.7165 57.9898 34.7723 58.1141C35.1183 58.8811 35.6573 60.1471 36.2253 61.4781C37.0163 63.3361 37.8353 65.2561 38.2993 66.2331C38.4486 66.4617 38.6558 66.6469 38.8997 66.7698C39.1436 66.8927 39.4156 66.949 39.6883 66.9331C40.2463 66.9431 40.8003 66.9331 41.3553 66.9331C42.2953 66.9261 43.2643 66.9181 44.2043 66.9741C44.6255 66.9973 45.0296 67.148 45.3633 67.4061C46.7213 68.6381 48.0633 69.951 49.3513 71.2191L50.2773 72.128C50.8293 72.669 50.8873 73.175 50.4473 73.6371C50.368 73.7297 50.2708 73.8054 50.1615 73.8593C50.0522 73.9133 49.933 73.9445 49.8113 73.951C49.4552 73.9232 49.1228 73.7622 48.8802 73.5001L47.8943 72.542C46.8943 71.572 45.8943 70.602 44.8763 69.653C44.4728 69.2994 43.9577 69.0991 43.4213 69.0871C42.0273 69.0691 40.6343 69.0651 39.2403 69.0651H36.3263C35.8065 69.1038 35.2886 68.9687 34.8541 68.6808C34.4196 68.393 34.0932 67.9688 33.9263 67.4751C33.5363 66.5671 32.8963 65.0351 32.2353 63.4581C31.4673 61.6271 30.6742 59.7341 30.2192 58.68C30.0662 58.3537 29.9976 57.9941 30.0198 57.6343C30.042 57.2746 30.1543 56.9261 30.3463 56.6211C30.5467 56.3229 30.8196 56.0805 31.1393 55.9166C31.4591 55.7527 31.8151 55.6727 32.1743 55.684C32.7123 55.695 33.2613 55.69 33.8043 55.684L33.8033 55.6861ZM29.1273 50.2291C29.5154 49.8499 30.0347 49.635 30.5773 49.6291C30.8268 49.6273 31.0742 49.6748 31.3054 49.7687C31.5365 49.8626 31.7469 50.0011 31.9246 50.1764C32.1022 50.3516 32.2436 50.5601 32.3407 50.7899C32.4378 51.0198 32.4886 51.2665 32.4903 51.516V51.529C32.4851 51.8003 32.4245 52.0676 32.3122 52.3146C32.1999 52.5615 32.0383 52.7829 31.8373 52.9651C31.6719 53.1235 31.4742 53.2443 31.2577 53.3191C31.0413 53.3938 30.8111 53.4208 30.5832 53.3981C30.5534 53.3939 30.5234 53.3922 30.4933 53.3931C30.4693 53.3911 30.4452 53.3911 30.4213 53.3931C30.2164 53.4105 30.0102 53.3846 29.816 53.3171C29.6219 53.2495 29.444 53.1419 29.2942 53.0011C29.0852 52.8042 28.9174 52.5677 28.8005 52.3054C28.6836 52.0431 28.6199 51.7602 28.6133 51.473C28.6123 51.2418 28.6574 51.0127 28.746 50.7991C28.8346 50.5855 28.9649 50.3917 29.1293 50.2291H29.1273ZM72.5513 77.4871C68.5633 75.5271 64.5413 74.759 59.0723 74.916C56.7017 75.0446 54.3481 75.3914 52.0413 75.9521C47.8665 77.0003 43.5525 77.3837 39.2582 77.0881C35.5858 76.8771 32.0994 75.4024 29.3903 72.9141C29.313 72.8415 29.2222 72.7848 29.123 72.7474C29.0238 72.7099 28.9183 72.6923 28.8123 72.6957C28.7064 72.699 28.6021 72.7232 28.5055 72.7668C28.4089 72.8105 28.3218 72.8728 28.2493 72.9501C28.1023 73.1085 28.024 73.3186 28.0313 73.5346C28.0386 73.7506 28.131 73.9549 28.2883 74.1031C31.2637 76.8454 35.0968 78.4732 39.1363 78.71C43.5834 79.0151 48.0508 78.622 52.3763 77.5451C54.5899 77.0059 56.8484 76.6711 59.1233 76.5451C65.6233 76.3531 69.2093 77.6541 71.8453 78.9451C71.9551 78.999 72.0758 79.0271 72.1982 79.0271C72.3816 79.0261 72.5594 78.9633 72.7026 78.8488C72.8458 78.7342 72.9462 78.5747 72.9874 78.396C73.0286 78.2173 73.0082 78.0299 72.9296 77.8642C72.851 77.6985 72.7187 77.5642 72.5543 77.4831L72.5513 77.4871ZM69.0392 79.9791C65.7106 78.848 62.2034 78.3342 58.6902 78.4631C56.3966 78.6274 54.1184 78.9617 51.8743 79.4631C47.6155 80.4498 43.2409 80.8442 38.8743 80.6351C36.094 80.5012 33.3953 79.6522 31.0392 78.1701C30.8649 78.0456 30.6482 77.9954 30.4368 78.0307C30.2255 78.0659 30.0368 78.1837 29.9123 78.3581C29.7872 78.5339 29.7366 78.7521 29.7716 78.9651C29.8066 79.1781 29.9244 79.3685 30.0992 79.4951C32.6997 81.1693 35.6976 82.1241 38.7873 82.2621C39.6673 82.3091 40.5073 82.3321 41.3133 82.3321C44.9722 82.291 48.6166 81.865 52.1863 81.0611C54.3549 80.577 56.5561 80.2531 58.7723 80.0921C62.0666 79.9771 65.3546 80.4574 68.4783 81.5101C68.6797 81.5839 68.9022 81.5747 69.0969 81.4845C69.2915 81.3943 69.4424 81.2305 69.5163 81.029C69.5922 80.8264 69.5845 80.6019 69.4951 80.4049C69.4057 80.2079 69.2417 80.0544 69.0392 79.9781V79.9791Z" fill="black"/>
</g>
<defs>
<clipPath id="clip0_1721_876">
<rect width="100" height="100" fill="white"/>
</clipPath>
</defs>
</svg>
