<svg width="21" height="20" viewBox="0 0 21 20" fill="none" xmlns="http://www.w3.org/2000/svg">
<g clip-path="url(#clip0_1062_1671)">
<path d="M10.2843 4.52393C12.0389 4.52393 12.2468 4.53061 12.9397 4.56218C13.5804 4.59144 13.9284 4.69849 14.16 4.78848C14.4667 4.90769 14.6856 5.05011 14.9155 5.28006C15.1455 5.51001 15.2879 5.72892 15.4071 6.03562C15.4971 6.26721 15.6041 6.61519 15.6334 7.25585C15.665 7.94883 15.6717 8.15665 15.6717 9.91127C15.6717 11.6659 15.665 11.8738 15.6334 12.5667C15.6041 13.2074 15.4971 13.5553 15.4071 13.7869C15.2879 14.0936 15.1455 14.3126 14.9155 14.5425C14.6856 14.7725 14.4667 14.9149 14.16 15.0341C13.9284 15.1241 13.5804 15.2312 12.9397 15.2604C12.2469 15.292 12.039 15.2987 10.2843 15.2987C8.52954 15.2987 8.32172 15.292 7.6289 15.2604C6.98818 15.2311 6.64026 15.1241 6.40866 15.0341C6.10196 14.9149 5.883 14.7725 5.65305 14.5425C5.4231 14.3125 5.28069 14.0936 5.16153 13.7869C5.07153 13.5554 4.96444 13.2074 4.93523 12.5667C4.9036 11.8738 4.89693 11.6659 4.89693 9.91127C4.89693 8.15665 4.9036 7.94883 4.93523 7.2559C4.96449 6.61519 5.07153 6.26721 5.16153 6.03562C5.28069 5.72892 5.4231 5.51001 5.65305 5.28006C5.88305 5.05006 6.10196 4.90769 6.40866 4.78848C6.64021 4.69849 6.98818 4.59144 7.6289 4.56218C8.32182 4.53061 8.52964 4.52393 10.2843 4.52393ZM10.2843 3.33984C8.49961 3.33984 8.27582 3.34739 7.57494 3.37937C6.87544 3.41131 6.39773 3.52241 5.97978 3.68484C5.5476 3.85277 5.18114 4.07749 4.81581 4.44282C4.45048 4.80815 4.22582 5.17461 4.05789 5.60673C3.8954 6.02473 3.78435 6.50245 3.75242 7.20189C3.72044 7.90278 3.71289 8.12656 3.71289 9.91127C3.71289 11.696 3.72044 11.9198 3.75242 12.6207C3.78435 13.3201 3.8954 13.7979 4.05789 14.2158C4.22577 14.6479 4.45048 15.0144 4.81581 15.3798C5.18114 15.7451 5.5476 15.9698 5.97978 16.1377C6.39778 16.3002 6.87544 16.4112 7.57489 16.4432C8.27582 16.4752 8.49961 16.4827 10.2843 16.4827C12.069 16.4827 12.2928 16.4752 12.9937 16.4432C13.6931 16.4112 14.1709 16.3002 14.5888 16.1377C15.021 15.9698 15.3874 15.7451 15.7528 15.3798C16.1181 15.0144 16.3428 14.648 16.5107 14.2158C16.6732 13.7978 16.7843 13.3201 16.8162 12.6207C16.8482 11.9198 16.8557 11.696 16.8557 9.91127C16.8557 8.12656 16.8482 7.90278 16.8162 7.20189C16.7843 6.50245 16.6732 6.02473 16.5107 5.60678C16.3428 5.17461 16.1181 4.80815 15.7528 4.44282C15.3874 4.07749 15.021 3.85272 14.5889 3.68484C14.1709 3.52241 13.6931 3.41131 12.9937 3.37937C12.2928 3.34739 12.069 3.33984 10.2843 3.33984ZM10.2843 6.53674C8.4206 6.53674 6.90979 8.04766 6.90979 9.91127C6.90979 11.775 8.4206 13.2858 10.2843 13.2858C12.148 13.2858 13.6588 11.775 13.6588 9.91127C13.6588 8.0476 12.148 6.53674 10.2843 6.53674ZM10.2843 12.1018C9.07456 12.1018 8.09383 11.121 8.09383 9.91127C8.09383 8.70151 9.07456 7.72078 10.2843 7.72078C11.4941 7.72078 12.4748 8.70151 12.4748 9.91127C12.4748 11.121 11.4941 12.1018 10.2843 12.1018ZM14.5807 6.40341C14.5807 6.83898 14.2277 7.19198 13.7921 7.19198C13.3566 7.19198 13.0036 6.83898 13.0036 6.40341C13.0036 5.9679 13.3566 5.61484 13.7921 5.61484C14.2277 5.61484 14.5807 5.9679 14.5807 6.40341Z" fill="#F9F0D9"/>
</g>
<defs>
<clipPath id="clip0_1062_1671">
<rect width="13.1429" height="13.1429" fill="white" transform="translate(3.71289 3.33984)"/>
</clipPath>
</defs>
</svg>
