<svg width="145" height="21" viewBox="0 0 145 21" fill="none" xmlns="http://www.w3.org/2000/svg">
<g clip-path="url(#clip0_1062_1655)">
<path d="M96.2702 11.8693C96.3614 11.9823 96.4182 12.161 96.4182 12.2998C96.4182 13.2492 95.66 13.8105 94.0599 14.0497C94.539 13.2597 95.3063 12.4471 96.2702 11.8693ZM130.97 11.8599C131.049 11.9671 131.096 12.1292 131.096 12.2568C131.096 13.1883 130.122 13.9228 128.546 14.196C129.101 13.2709 130.039 12.375 130.97 11.8599ZM93.3407 7.32925C94.2751 6.39477 94.6586 5.61233 94.6586 4.64182C94.6586 2.92876 92.929 1.73047 88.8768 1.73047C83.2835 1.73047 79.168 4.62141 79.168 6.59259C79.168 7.38863 79.7682 7.81349 81.0209 7.81349C81.5567 7.81349 82.3146 7.60759 82.5641 7.36289C82.1799 5.88791 84.8885 3.47901 88.6216 3.47901C90.6281 3.47901 91.3662 4.16934 91.3662 5.08249C91.3662 6.29421 90.4049 8.03392 87.247 10.2305C86.177 10.9745 85.9388 11.3095 85.9388 11.8472C85.9388 12.8387 87.5237 14.1574 87.5237 15.4835C87.5237 16.2593 86.7069 16.7516 85.3192 16.7516C84.6748 16.7516 83.9582 16.6522 83.5458 16.4747C84.1702 13.6347 86.3478 8.05065 87.1955 6.70565C87.1661 6.47529 86.8326 6.28704 86.2301 6.28704C84.9434 6.28704 84.1007 6.73047 83.6824 7.70925C82.7 10.0088 81.1437 14.6904 80.6748 17.1138C80.4415 18.3198 81.3511 19.0342 83.4267 19.0342C86.9254 19.0342 90.4424 16.717 90.4424 14.6198C90.4424 13.1626 88.7312 11.9503 88.7312 11.1594C88.7312 10.4244 91.5043 9.16585 93.3407 7.32943M138.216 15.388C138.277 13.9862 137.963 12.0189 138.568 10.6627C138.538 10.5189 138.268 10.4388 137.902 10.4388C137.064 10.4388 136.637 10.6559 136.183 11.2909C135.286 12.5458 134.273 13.7721 133.407 14.6376C131.718 16.3273 130.482 17.0182 129.4 17.0182C128.604 17.0182 128.051 16.4429 128.051 15.6489C128.051 15.5118 128.071 15.3638 128.109 15.2082C131.056 15.05 132.904 13.4494 132.904 12.1386C132.904 11.2973 131.85 10.3989 131.109 10.1926C130.049 10.4371 128.847 11.1839 127.751 12.2796C126.431 13.6 125.782 15.4445 124.937 15.4445C124.251 15.4445 123.546 14.2699 123.149 11.142C123.072 11.0929 122.907 11.0508 122.724 11.0508C122.145 11.0508 121.929 11.2093 121.627 11.7314C120.635 13.4472 119.705 15.0286 118.577 16.4262C118.89 15.0194 119.301 13.3503 119.724 11.7827C120.95 9.62969 122.3 6.27876 122.3 4.59439C122.3 4.07797 122.136 3.79871 121.769 3.57295C121.402 3.34738 120.986 3.26501 120.834 3.36741C119.69 4.46092 118.358 8.63877 117.394 12.5379C114.785 15.9181 112.833 17.0213 111.693 17.0213C111.044 17.0213 110.4 16.4655 110.4 15.6061C110.4 14.7466 111.543 13.0415 113.277 12.0871C113.433 12.4892 113.286 13.1297 112.691 13.9651C112.834 14.1364 113.112 14.2701 113.518 14.2701C114.351 14.2701 115.233 13.1494 115.233 12.3329C115.233 11.5165 114.173 10.5066 113.44 10.2974C112.187 10.5962 111.056 11.308 109.977 12.3868C108.285 14.0793 107.464 16.1392 106.716 16.1392C106.245 16.1392 105.949 15.614 105.969 13.9035C105.827 13.8303 105.53 13.7778 105.291 13.7778C104.633 13.7778 104.349 13.9265 103.842 14.2921C102.785 15.0558 101.498 16.1964 100.706 17.1068C101.192 15.1415 103.765 12.3897 106.172 11.6498C106.254 11.4277 106.068 10.826 105.562 10.3197C105.234 9.99131 104.89 9.90508 104.253 10.1606C102.886 10.7096 101.958 11.5714 99.9907 13.5388C97.6696 15.8598 95.7849 17.0362 94.8555 17.0362C94.0597 17.0362 93.5076 16.461 93.5076 15.6669C93.5076 15.4658 93.5453 15.2584 93.6054 15.0514C96.5956 14.9428 98.2261 13.5086 98.2261 12.1818C98.2261 11.3405 97.1128 10.391 96.3791 10.1829C94.0863 10.8269 91.2406 13.8415 91.2406 15.9247C91.2406 17.5263 92.465 18.7869 94.1727 18.7869C95.3334 18.7869 97.197 17.6153 99.1415 15.6052C98.8472 16.3188 98.6788 17.0042 98.6788 17.5947C98.6788 18.3145 99.9506 19.037 100.447 19.0256C101.293 17.9999 102.937 16.5953 104.075 15.8879C104.273 17.7319 105.086 18.4902 105.807 18.4902C106.529 18.4902 107.438 17.6736 108.265 16.4016C108.45 17.5594 109.576 18.8772 111.223 18.8772C112.869 18.8772 114.871 17.4596 116.898 14.6654C116.65 15.7412 116.348 17.212 116.348 17.7583C116.348 18.3689 117.352 18.7368 117.91 18.7358C118.43 18.7349 120.209 16.34 121.54 14.1449C121.785 16.2052 122.738 17.9232 123.743 17.9232C124.305 17.9232 124.903 17.5651 125.818 16.3341C126.031 17.742 127.287 18.7689 128.794 18.7689C130.395 18.7689 131.785 18.128 133.952 15.9611C134.666 15.2463 135.448 14.2956 136.12 13.2466C135.995 14.1647 136.293 15.6074 136.144 16.1442C134.987 16.7264 134.223 17.3327 133.982 17.6938C134.018 18.227 134.337 18.7068 134.995 18.7068C136.158 18.7068 137.43 17.9641 137.96 16.6858C138.568 16.5185 139.231 16.4383 139.748 16.4383C141.063 16.4383 142.058 16.8768 142.257 17.7102C142.592 17.8359 143.543 17.4897 144.294 16.7393C144.688 16.3449 144.874 15.9793 144.874 15.6667C144.874 15.1226 144.288 14.6554 142.851 14.6554C141.126 14.6554 139.551 14.9597 138.216 15.3879M140.886 17.9363C140.886 17.792 140.789 17.6975 140.603 17.6975H140.352V18.4702H140.456V18.1782H140.604L140.786 18.4702H140.908L140.715 18.1633C140.821 18.1308 140.886 18.0503 140.886 17.9363ZM140.601 18.0847H140.455V17.7912H140.601C140.724 17.7912 140.779 17.8503 140.779 17.9365C140.779 18.0227 140.724 18.0847 140.601 18.0847ZM140.587 17.418C140.217 17.418 139.909 17.7037 139.909 18.0905C139.909 18.4774 140.217 18.7597 140.587 18.7597C140.958 18.7597 141.275 18.4739 141.275 18.0905C141.275 17.7072 140.964 17.418 140.587 17.418ZM140.587 18.6684C140.258 18.6684 140.019 18.4329 140.019 18.0905C140.019 17.7482 140.258 17.5092 140.587 17.5092C140.917 17.5092 141.169 17.7449 141.169 18.0905C141.169 18.4362 140.923 18.6684 140.587 18.6684Z" fill="#F8F0DB"/>
</g>
<g clip-path="url(#clip1_1062_1655)">
<path d="M32.4212 16.5362C32.3356 16.4971 32.2635 16.4336 32.2138 16.3538C32.1641 16.2739 32.1391 16.1811 32.1418 16.0871C32.1418 15.1586 33.7067 13.0712 35.319 12.1574C35.2468 12.7577 35.2097 13.3618 35.2081 13.9665C34.4582 14.9993 33.5106 15.8728 32.4202 16.5362M54.432 5.89117C54.5956 6.73669 53.9052 9.36001 52.0102 12.1773C52.2819 9.93712 53.1772 7.37497 54.432 5.89117ZM7.4702 4.59279C7.71083 4.56753 7.95368 4.61095 8.17063 4.71805C8.38758 4.82514 8.56975 4.99151 8.69603 5.19788C9.36419 5.27565 11.8789 3.75961 11.8789 2.66134C11.8794 2.12786 11.3269 1.73047 10.2761 1.73047C7.428 1.73047 3.48211 4.24709 3.48211 6.54558C3.48211 9.31828 6.72095 13.2205 6.72095 14.8807C6.72095 15.5053 6.04473 15.9823 4.93841 15.9771C4.20054 15.9738 3.5466 15.6418 3.42094 15.1857C2.29185 15.0851 0 16.6097 0 17.8692C0 18.5023 0.622161 18.8494 1.7835 18.8494C4.50925 18.8494 9.72838 16.393 9.72838 14.0158C9.72838 11.4252 6.03667 7.65191 6.03667 5.58531C6.03667 5.02337 6.54408 4.59516 7.47068 4.59516M60.0272 15.4901C60.0903 14.0931 59.774 12.136 60.3781 10.7822C60.3478 10.6399 60.0794 10.5588 59.7142 10.5588C59.3766 10.527 59.0368 10.5911 58.734 10.7438C58.4311 10.8965 58.1775 11.1315 58.0023 11.4219C55.5108 14.9035 53.9919 16.3361 53.0487 16.3361C52.4645 16.3361 52.0268 15.7196 51.94 14.1339C54.267 11.42 56.1999 7.80081 56.1999 5.51323C56.1999 4.45622 55.8248 3.8407 54.7772 3.54194C54.4886 3.42129 54.1676 3.40223 53.8668 3.48788C51.188 5.7565 49.9052 10.4241 49.973 14.0153C48.8401 15.3407 47.8552 15.998 47.3867 15.998C47.005 15.998 46.6725 15.5299 46.6925 13.8759C46.477 13.7927 46.2476 13.7515 46.0167 13.7545C45.4909 13.7338 44.9765 13.9115 44.5756 14.2524C43.4403 15.0713 42.3939 16.0068 41.4534 17.0436C41.9452 15.142 44.6097 12.5249 46.9068 11.8434C46.9812 11.539 46.4283 10.2643 45.6321 10.2643C45.0484 10.2643 43.5347 10.9021 41.892 12.5453C40.3684 14.0689 39.2981 15.7263 38.1534 15.7263C37.5587 15.7263 37.1239 15.0899 37.1196 13.5828C38.4261 11.1445 40.0877 6.46497 40.0877 4.55011C40.1028 4.35254 40.061 4.15477 39.9672 3.98022C39.8734 3.80567 39.7315 3.66164 39.5585 3.56518C39.3021 3.40884 39.015 3.30969 38.7167 3.27449C37.2334 4.66345 36.0066 8.00093 35.4807 11.0387C35.3763 10.8876 35.2376 10.7633 35.076 10.6759C34.9144 10.5885 34.7345 10.5406 34.5508 10.536C34.0766 10.536 33.2287 10.9956 32.3168 11.9075C30.815 13.4093 29.8984 15.3905 29.0633 15.3905C28.3804 15.3905 27.681 14.2206 27.2855 11.1051C27.1541 11.04 27.0085 11.0087 26.862 11.014C26.6308 10.99 26.3981 11.0435 26.2007 11.1662C26.0032 11.2888 25.8522 11.4737 25.7713 11.6917C24.9075 13.2038 23.904 14.6317 22.7739 15.9567C23.3291 14.4646 23.6986 12.9099 23.874 11.3275C23.874 10.6835 22.5571 10.3497 22.1194 10.4777C20.5071 14.1064 18.6795 16.0819 17.9075 16.0819C17.4381 16.0819 17.1436 15.5603 17.1635 13.8531C16.9486 13.7675 16.719 13.7249 16.4878 13.7279C15.9589 13.7069 15.4422 13.8905 15.0452 14.2406C13.9066 15.087 12.86 16.0507 11.9225 17.1157C12.4157 15.1596 15.0718 12.3973 17.3679 11.6888C17.4888 11.3616 16.9126 10.0585 16.0989 10.0585C15.4971 10.0585 14.1072 10.7395 12.8103 12.0341C11.142 13.7019 9.90384 16.0098 9.90384 17.6103C9.90384 18.2628 11.1543 19.0471 11.6651 19.0353C12.7307 17.8249 13.9431 16.7522 15.2743 15.842C15.453 17.6719 16.1961 18.4245 16.8515 18.4245C17.9763 18.4245 19.8485 16.5144 21.0928 14.4336C20.7969 15.6423 20.4384 16.9526 20.2013 17.7355C20.3629 17.9764 20.5759 18.1786 20.8249 18.3276C21.0739 18.4765 21.3527 18.5686 21.6414 18.5971C22.1678 18.5971 24.242 16.1786 25.6789 14.031C25.9112 16.1118 26.8696 17.8592 27.8806 17.8592C28.5753 17.8592 29.2288 17.221 29.9913 16.1995C29.8073 17.3405 30.5286 18.203 31.7814 18.6554C32.4823 18.4255 34.1245 17.0735 35.3603 15.4967C35.6685 17.0303 36.3983 17.8958 37.1016 17.8958C37.7394 17.8958 38.5688 17.4358 39.6149 16.3783C39.5008 16.7472 39.4393 17.1303 39.4323 17.5164C39.4323 18.1561 40.6743 18.912 41.1935 18.9001C42.2638 17.7214 43.4763 16.6802 44.8032 15.8002C44.9829 17.5605 45.736 18.3102 46.4534 18.3102C47.2895 18.3102 48.6258 17.3196 50.1262 15.6546C50.4913 17.6383 51.454 18.3538 52.4498 18.3538C53.659 18.3538 55.3837 16.9976 57.9212 13.4923C57.8401 14.4132 58.1052 15.7471 57.9577 16.2479C57.1115 16.6146 56.3521 17.1556 55.729 17.8355C55.7259 17.9689 55.7499 18.1014 55.7996 18.2252C55.8492 18.349 55.9234 18.4614 56.0178 18.5557C56.1121 18.65 56.2246 18.7242 56.3484 18.7738C56.4722 18.8233 56.6048 18.8473 56.7381 18.8442C57.3858 18.8214 58.0138 18.6155 58.5492 18.2503C59.0846 17.8851 59.5055 17.3756 59.7631 16.7809C60.3468 16.6226 60.9484 16.5391 61.5532 16.5324C62.863 16.5324 63.8545 16.9692 64.0527 17.7995C64.3847 17.9247 65.3672 17.5463 66.0814 16.8321C66.4053 16.5643 66.6126 16.1813 66.6599 15.7637C66.6599 15.2217 66.0757 14.7565 64.6446 14.7565C63.0772 14.7596 61.5197 15.0056 60.0277 15.4858M62.678 18.0243C62.678 17.882 62.5832 17.7872 62.3963 17.7872H62.146V18.5568H62.2493V18.2661H62.3973L62.5789 18.5568H62.6998L62.5078 18.2509C62.5577 18.2383 62.6018 18.209 62.6328 18.1678C62.6637 18.1267 62.6797 18.0757 62.678 18.0243ZM62.3935 18.1722H62.2484V17.882H62.3935C62.5154 17.882 62.5704 17.9413 62.5704 18.0266C62.5704 18.112 62.5154 18.1741 62.3935 18.1741M62.3797 17.5102C62.2484 17.5136 62.121 17.5556 62.0134 17.6309C61.9059 17.7063 61.8229 17.8117 61.7749 17.934C61.7269 18.0562 61.716 18.1899 61.7435 18.3184C61.7711 18.4468 61.8359 18.5643 61.9298 18.6561C62.0238 18.7479 62.1427 18.8099 62.2717 18.8345C62.4008 18.8591 62.5342 18.8451 62.6553 18.7943C62.7764 18.7435 62.8799 18.6581 62.9528 18.5488C63.0256 18.4395 63.0646 18.3112 63.065 18.1798C63.0658 18.0903 63.0485 18.0016 63.0141 17.919C62.9798 17.8363 62.9291 17.7615 62.8651 17.6989C62.8011 17.6364 62.7251 17.5874 62.6417 17.555C62.5583 17.5226 62.4692 17.5073 62.3797 17.5102ZM62.3797 18.7555C62.2295 18.7512 62.0868 18.6885 61.9821 18.5807C61.8773 18.4729 61.8187 18.3285 61.8187 18.1782C61.8187 18.0278 61.8773 17.8834 61.9821 17.7756C62.0868 17.6678 62.2295 17.6051 62.3797 17.6008C62.4569 17.5986 62.5338 17.6119 62.6058 17.6399C62.6778 17.6679 62.7434 17.7101 62.7988 17.7639C62.8542 17.8178 62.8982 17.8822 62.9283 17.9533C62.9584 18.0245 62.9739 18.1009 62.9739 18.1782C62.9739 18.2554 62.9584 18.3319 62.9283 18.403C62.8982 18.4741 62.8542 18.5385 62.7988 18.5924C62.7434 18.6462 62.6778 18.6884 62.6058 18.7164C62.5338 18.7444 62.4569 18.7577 62.3797 18.7555Z" fill="#F8F0DB"/>
</g>
<line x1="72.7656" y1="20.7695" x2="72.7656" y2="-4.00422e-05" stroke="#F8F0DB" stroke-width="0.554669"/>
<defs>
<clipPath id="clip0_1062_1655">
<rect width="65.7061" height="17.3034" fill="white" transform="translate(79.168 1.73047)"/>
</clipPath>
<clipPath id="clip1_1062_1655">
<rect width="66.6595" height="17.3034" fill="white" transform="translate(0 1.73047)"/>
</clipPath>
</defs>
</svg>
