<svg width="53" height="60" viewBox="0 0 53 60" fill="none" xmlns="http://www.w3.org/2000/svg">
<g clip-path="url(#clip0_1305_1532)">
<path d="M46.3043 23.8975L42.0476 22.3806L37.6627 21.6725L33.8019 24.0556L30.9031 25.3045L32.3121 23.026L35.8578 20.6077L39.4702 18.2416L43.0082 18.3291L46.3958 17.3192L49.8803 17.9215L53 17.5975L50.2135 14.5507L45.9646 13.3618L41.7771 11.9729L37.4942 13.0599L32.972 15.2601L30.6732 19.8786L28.105 24.6278L28.293 21.7104L29.5924 18.0796L29.6447 14.5428L30.0326 10.6599L28.5793 7.03037L28.1742 3.14349L26.5 0L24.8258 3.14349L24.4207 7.03037L22.9673 10.6599L23.3555 14.5428L23.4077 18.0796L24.707 21.7104L24.895 24.6278L22.3269 19.8786L20.0279 15.2601L15.5058 13.0599L11.2229 11.9729L7.03537 13.3618L2.78644 14.5507L0 17.5975L3.11972 17.9215L6.60409 17.3192L9.99173 18.3291L13.5297 18.2416L17.1421 20.6077L20.6879 23.026L22.0968 25.3045L19.198 24.0556L15.3372 21.6725L10.9524 22.3806L6.69557 23.8975L4.2816 27.6956L2.11467 31.6437L2.56818 35.9082L3.76145 33.4912L5.80945 31.4937L8.42601 30.0811L10.5015 27.9386L13.6957 27.7295L16.8063 26.9835L19.7495 28.2625L22.6876 29.2006L19.8489 31.005L17.5983 33.7853L14.4524 35.4863L12.2266 38.2431L15.0994 36.7783L18.1328 36.4361L21.195 34.3432L23.5659 33.7407L25.2662 32.2488L24.6259 36.3199L25.2324 40.2407L24.2992 44.0949L24.5264 48.059L23.2875 50.8182L23.2901 53.8429L21.7806 56.4611L21.2865 59.0571H31.7134L31.2194 56.4611L29.71 53.8429L29.7124 50.8182L28.4736 48.059L28.7008 44.0949L27.7676 40.2407L28.3741 36.3199L27.7338 32.2488L29.4341 33.7407L31.8051 34.3432L34.8672 36.4361L37.9006 36.7783L40.7735 38.2431L38.5477 35.4863L35.4018 33.7853L33.1511 31.005L30.3124 29.2006L33.2504 28.2625L36.1937 26.9835L39.3042 27.7295L42.4985 27.9386L44.574 30.0811L47.1906 31.4937L49.2385 33.4912L50.4318 35.9082L50.8853 31.6437L48.7184 27.6956L46.3043 23.8975ZM25.0245 28.0575L24.6102 27.8863L24.2128 27.6811L24.0534 27.2617L23.9018 26.8398L24.0534 26.4177L24.2128 25.9985L24.6114 25.7947L25.0245 25.6233L25.4373 25.7947L25.8347 25.9985L25.993 26.4177L26.1457 26.8398L25.993 27.2617L25.8347 27.6811L25.4373 27.8863L25.0245 28.0575ZM27.4685 29.6958L27.3102 30.1153L26.9131 30.3203L26.5 30.4914L26.0857 30.3203L25.6883 30.1153L25.5288 29.6958L25.3773 29.2737L25.5288 28.8518L25.6883 28.4324L26.0869 28.2286L26.5 28.0575L26.9131 28.2286L27.3102 28.4324L27.4685 28.8518L27.6215 29.2737L27.4685 29.6958ZM28.9453 27.2617L28.7872 27.6811L28.3898 27.8863L27.977 28.0575L27.5627 27.8863L27.1653 27.6811L27.0058 27.2617L26.8543 26.8398L27.0058 26.4177L27.1653 25.9985L27.5639 25.7947L27.977 25.6233L28.3898 25.7947L28.7872 25.9985L28.9453 26.4177L29.0982 26.8398L28.9453 27.2617Z" fill="#1A51FF"/>
</g>
<defs>
<clipPath id="clip0_1305_1532">
<rect width="53" height="59.0571" fill="white"/>
</clipPath>
</defs>
</svg>
