<svg width="46" height="46" viewBox="0 0 46 46" fill="none" xmlns="http://www.w3.org/2000/svg">
<rect x="0.0078125" y="0.799805" width="45.8" height="44.48" rx="8" fill="#0057FF"/>
<path d="M22.9678 15.2398C22.9678 15.9331 23.1678 16.7331 23.5678 17.6398C23.9945 18.5465 24.5145 19.5198 25.1278 20.5598C25.7411 21.5731 26.3411 22.6265 26.9278 23.7198C27.5411 24.7865 28.0478 25.8398 28.4478 26.8798C28.8745 27.8931 29.0878 28.8531 29.0878 29.7598C29.0878 31.2531 28.7411 32.5465 28.0478 33.6398C27.3811 34.7065 26.4878 35.5865 25.3678 36.2798C24.2745 36.9465 23.0611 37.4398 21.7278 37.7598C20.4211 38.1065 19.1145 38.2798 17.8078 38.2798C16.0211 38.2798 14.6078 37.9331 13.5678 37.2398C12.5278 36.5465 12.0078 35.7198 12.0078 34.7598C12.0078 34.0398 12.1678 33.4265 12.4878 32.9198C12.8078 32.3865 13.1945 31.9598 13.6478 31.6398C14.1278 31.2931 14.5945 31.0398 15.0478 30.8798C15.5011 30.6931 15.8478 30.5998 16.0878 30.5998C16.4345 30.5998 16.6078 30.7731 16.6078 31.1198C16.6078 32.1065 16.8745 32.9465 17.4078 33.6398C17.9411 34.3065 18.7411 34.6398 19.8078 34.6398C20.4478 34.6398 21.1011 34.4931 21.7678 34.1998C22.4345 33.8798 22.9945 33.4265 23.4478 32.8398C23.9011 32.2531 24.1278 31.5465 24.1278 30.7198C24.1278 29.9998 23.9278 29.1998 23.5278 28.3198C23.1545 27.4398 22.6745 26.5065 22.0878 25.5198C21.5278 24.5331 20.9545 23.5331 20.3678 22.5198C19.8078 21.5065 19.3278 20.4931 18.9278 19.4798C18.5545 18.4398 18.3678 17.4531 18.3678 16.5198C18.3678 14.7865 18.8478 13.2665 19.8078 11.9598C20.7945 10.6531 22.0745 9.6398 23.6478 8.9198C25.2478 8.17314 26.9545 7.7998 28.7678 7.7998C30.3678 7.7998 31.6078 8.10647 32.4878 8.7198C33.3678 9.33314 33.8078 10.0531 33.8078 10.8798C33.8078 11.3331 33.6345 11.7865 33.2878 12.2398C32.9411 12.6665 32.5011 13.0531 31.9678 13.3998C31.4611 13.7465 30.9545 14.0265 30.4478 14.2398C29.9678 14.4265 29.5678 14.5198 29.2478 14.5198C28.9278 14.5198 28.7678 14.3198 28.7678 13.9198C28.7678 13.3331 28.5278 12.8531 28.0478 12.4798C27.5945 12.0798 27.0211 11.8798 26.3278 11.8798C25.5278 11.8798 24.7678 12.1865 24.0478 12.7998C23.3278 13.3865 22.9678 14.1998 22.9678 15.2398Z" fill="#F8F0DB"/>
</svg>
