<svg width="20" height="20" viewBox="0 0 20 20" fill="none" xmlns="http://www.w3.org/2000/svg">
<g clip-path="url(#clip0_1062_1664)">
<path d="M8.6236 17.2231C5.13253 16.607 2.46289 13.5677 2.46289 9.91239C2.46289 5.84632 5.78968 2.51953 9.85575 2.51953C13.9218 2.51953 17.2486 5.84632 17.2486 9.91239C17.2486 13.5677 14.579 16.607 11.0879 17.2231L10.6772 16.8945H9.03432L8.6236 17.2231Z" fill="#F9F0D9"/>
<path d="M12.7307 11.966L13.0593 9.91239H11.0879V8.47489C11.0879 7.89989 11.2932 7.4481 12.1968 7.4481H13.1415V5.55882C12.6075 5.47667 12.0325 5.39453 11.4986 5.39453C9.81468 5.39453 8.62361 6.42132 8.62361 8.26953V9.91239H6.77539V11.966H8.62361V17.182C9.03432 17.2642 9.44503 17.3052 9.85575 17.3052C10.2665 17.3052 10.6772 17.2642 11.0879 17.182V11.966H12.7307Z" fill="#101B4F"/>
</g>
<defs>
<clipPath id="clip0_1062_1664">
<rect width="14.7857" height="14.7857" fill="white" transform="translate(2.46289 2.51953)"/>
</clipPath>
</defs>
</svg>
