<svg width="20" height="20" viewBox="0 0 20 20" fill="none" xmlns="http://www.w3.org/2000/svg">
<path d="M0.5 19.0385V2.30775C0.5 1.80258 0.675 1.375 1.025 1.025C1.375 0.675 1.80258 0.5 2.30775 0.5H17.6923C18.1974 0.5 18.625 0.675 18.975 1.025C19.325 1.375 19.5 1.80258 19.5 2.30775V13.6923C19.5 14.1974 19.325 14.625 18.975 14.975C18.625 15.325 18.1974 15.5 17.6923 15.5H4.0385L0.5 19.0385ZM4.25 11.75H11.75V10.25H4.25V11.75ZM4.25 8.75H15.75V7.25H4.25V8.75ZM4.25 5.75H15.75V4.25H4.25V5.75Z" fill="black"/>
</svg>
