<svg width="22" height="16" viewBox="0 0 22 16" fill="none" xmlns="http://www.w3.org/2000/svg">
<path d="M0.79834 15.3079V13.0846C0.79834 12.5693 0.93134 12.1094 1.19734 11.7049C1.46334 11.3004 1.81859 10.9857 2.26309 10.7609C3.21342 10.296 4.16901 9.93763 5.12984 9.68563C6.09084 9.4338 7.14692 9.30788 8.29809 9.30788C9.44942 9.30788 10.5055 9.4338 11.4663 9.68563C12.4273 9.93763 13.383 10.296 14.3333 10.7609C14.7778 10.9857 15.1331 11.3004 15.3991 11.7049C15.6651 12.1094 15.7981 12.5693 15.7981 13.0846V15.3079H0.79834ZM17.7981 15.3079V12.9616C17.7981 12.3053 17.6374 11.6797 17.3161 11.0849C16.9946 10.4902 16.5386 9.97997 15.9481 9.55413C16.6186 9.65413 17.2552 9.80888 17.8578 10.0184C18.4603 10.2281 19.0353 10.4758 19.5828 10.7616C20.0995 11.0373 20.4985 11.3622 20.7798 11.7364C21.0612 12.1104 21.2018 12.5188 21.2018 12.9616V15.3079H17.7981ZM8.29809 7.69238C7.33559 7.69238 6.51167 7.34972 5.82634 6.66438C5.14101 5.97888 4.79834 5.15488 4.79834 4.19238C4.79834 3.22988 5.14101 2.40597 5.82634 1.72063C6.51167 1.03513 7.33559 0.692383 8.29809 0.692383C9.26059 0.692383 10.0846 1.03513 10.7701 1.72063C11.4554 2.40597 11.7981 3.22988 11.7981 4.19238C11.7981 5.15488 11.4554 5.97888 10.7701 6.66438C10.0846 7.34972 9.26059 7.69238 8.29809 7.69238ZM16.9326 4.19238C16.9326 5.15488 16.5899 5.97888 15.9046 6.66438C15.2193 7.34972 14.3953 7.69238 13.4328 7.69238C13.32 7.69238 13.1764 7.67955 13.0021 7.65388C12.8276 7.62822 12.684 7.60005 12.5713 7.56938C12.9657 7.09522 13.2688 6.56922 13.4806 5.99138C13.6923 5.41355 13.7981 4.81355 13.7981 4.19138C13.7981 3.56905 13.6901 2.9713 13.4741 2.39813C13.2581 1.82513 12.9572 1.29763 12.5713 0.815633C12.7148 0.764299 12.8584 0.730966 13.0021 0.715633C13.1456 0.700133 13.2892 0.692383 13.4328 0.692383C14.3953 0.692383 15.2193 1.03513 15.9046 1.72063C16.5899 2.40597 16.9326 3.22988 16.9326 4.19238Z" fill="black"/>
</svg>
