<svg width="20" height="21" viewBox="0 0 20 21" fill="none" xmlns="http://www.w3.org/2000/svg">
<path d="M10.174 10.2826C9.40395 10.2826 8.74482 10.0085 8.19655 9.46022C7.64815 8.91182 7.37395 8.25262 7.37395 7.48262C7.37395 6.71262 7.64815 6.05348 8.19655 5.50522C8.74482 4.95682 9.40395 4.68262 10.174 4.68262C10.944 4.68262 11.6031 4.95682 12.1514 5.50522C12.6997 6.05348 12.974 6.71262 12.974 7.48262C12.974 8.25262 12.6997 8.91182 12.1514 9.46022C11.6031 10.0085 10.944 10.2826 10.174 10.2826ZM4.17395 16.375V14.5964C4.17395 14.2047 4.28035 13.8419 4.49315 13.508C4.70595 13.1742 4.99035 12.9175 5.34635 12.738C6.13702 12.3504 6.93468 12.0597 7.73935 11.8658C8.54402 11.672 9.35555 11.575 10.174 11.575C10.9924 11.575 11.8039 11.672 12.6086 11.8658C13.4132 12.0597 14.2109 12.3504 15.0015 12.738C15.3575 12.9175 15.6419 13.1742 15.8547 13.508C16.0675 13.8419 16.174 14.2047 16.174 14.5964V16.375H4.17395ZM5.37395 15.175H14.974V14.5964C14.974 14.4344 14.927 14.2844 14.8332 14.1464C14.7393 14.0086 14.6119 13.896 14.4509 13.8088C13.7616 13.4693 13.0588 13.2122 12.3426 13.0372C11.6261 12.8624 10.9033 12.775 10.174 12.775C9.44462 12.775 8.72175 12.8624 8.00535 13.0372C7.28908 13.2122 6.58628 13.4693 5.89695 13.8088C5.73602 13.896 5.60862 14.0086 5.51475 14.1464C5.42088 14.2844 5.37395 14.4344 5.37395 14.5964V15.175ZM10.174 9.08262C10.614 9.08262 10.9906 8.92595 11.3039 8.61262C11.6173 8.29928 11.774 7.92262 11.774 7.48262C11.774 7.04262 11.6173 6.66595 11.3039 6.35262C10.9906 6.03928 10.614 5.88262 10.174 5.88262C9.73395 5.88262 9.35728 6.03928 9.04395 6.35262C8.73062 6.66595 8.57395 7.04262 8.57395 7.48262C8.57395 7.92262 8.73062 8.29928 9.04395 8.61262C9.35728 8.92595 9.73395 9.08262 10.174 9.08262Z" fill="black"/>
</svg>
