<svg width="14" height="14" viewBox="0 0 14 14" fill="none" xmlns="http://www.w3.org/2000/svg">
<path d="M7 6.38477C6.175 6.38477 5.46875 6.09102 4.88125 5.50352C4.29375 4.91602 4 4.20977 4 3.38477C4 2.55977 4.29375 1.85352 4.88125 1.26602C5.46875 0.678516 6.175 0.384766 7 0.384766C7.825 0.384766 8.53125 0.678516 9.11875 1.26602C9.70625 1.85352 10 2.55977 10 3.38477C10 4.20977 9.70625 4.91602 9.11875 5.50352C8.53125 6.09102 7.825 6.38477 7 6.38477ZM0 13.6158V11.9695C0 11.5567 0.120167 11.1704 0.3605 10.8108C0.601 10.4513 0.924417 10.1721 1.33075 9.97327C2.27442 9.52077 3.21867 9.18135 4.1635 8.95502C5.10833 8.72885 6.05383 8.61577 7 8.61577C7.94617 8.61577 8.89167 8.72885 9.8365 8.95502C10.7813 9.18135 11.7256 9.52077 12.6693 9.97327C13.0756 10.1721 13.399 10.4513 13.6395 10.8108C13.8798 11.1704 14 11.5567 14 11.9695V13.6158H0Z" fill="black"/>
</svg>
